<svg width="16" height="16" viewBox="0 0 16 16" fill="none" xmlns="http://www.w3.org/2000/svg">
<path d="M8 8C6.9 8 5.95833 7.60833 5.175 6.825C4.39167 6.04167 4 5.1 4 4C4 2.9 4.39167 1.95833 5.175 1.175C5.95833 0.391666 6.9 -9.53674e-07 8 -9.53674e-07C9.1 -9.53674e-07 10.0417 0.391666 10.825 1.175C11.6083 1.95833 12 2.9 12 4C12 5.1 11.6083 6.04167 10.825 6.825C10.0417 7.60833 9.1 8 8 8ZM1.19209e-07 16V13.2C1.19209e-07 12.6333 0.141667 12.1167 0.425 11.65C0.725 11.1667 1.11667 10.8 1.6 10.55C2.63333 10.0333 3.68333 9.65 4.75 9.4C5.81667 9.13333 6.9 9 8 9C9.1 9 10.1833 9.13333 11.25 9.4C12.3167 9.65 13.3667 10.0333 14.4 10.55C14.8833 10.8 15.2667 11.1667 15.55 11.65C15.85 12.1167 16 12.6333 16 13.2V16H1.19209e-07ZM2 14H14V13.2C14 13.0167 13.95 12.85 13.85 12.7C13.7667 12.55 13.65 12.4333 13.5 12.35C12.6 11.9 11.6917 11.5667 10.775 11.35C9.85833 11.1167 8.93333 11 8 11C7.06667 11 6.14167 11.1167 5.225 11.35C4.30833 11.5667 3.4 11.9 2.5 12.35C2.35 12.4333 2.225 12.55 2.125 12.7C2.04167 12.85 2 13.0167 2 13.2V14ZM8 6C8.55 6 9.01667 5.80833 9.4 5.425C9.8 5.025 10 4.55 10 4C10 3.45 9.8 2.98333 9.4 2.6C9.01667 2.2 8.55 2 8 2C7.45 2 6.975 2.2 6.575 2.6C6.19167 2.98333 6 3.45 6 4C6 4.55 6.19167 5.025 6.575 5.425C6.975 5.80833 7.45 6 8 6Z" fill="#444746"/>
</svg>
