<svg width="20" height="18" viewBox="0 0 20 18" fill="none" xmlns="http://www.w3.org/2000/svg">
<path d="M13.9863 0C16.416 0 18.3857 1.96978 18.3857 4.39941C18.3857 5.84979 17.6832 7.13517 16.6006 7.93652L19.2393 11.8945L17.5322 13.0342L14.8457 9.00488L11.3369 8.41895L8.69043 10.5371C9.25254 11.2759 9.58681 12.1973 9.58691 13.1973C9.58691 15.6269 7.61714 17.5967 5.1875 17.5967C2.75808 17.5964 0.789062 15.6267 0.789062 13.1973C0.789227 11.5664 1.67674 10.1434 2.99512 9.38379L0 5.79004L1.57812 4.47559L5.0293 8.61621L7.1416 9.14551L10.2236 6.67969C9.81983 6.01477 9.58792 5.23418 9.58789 4.39941C9.58789 1.96991 11.5569 0.000223992 13.9863 0ZM5.1875 10.8516C3.89207 10.8518 2.84302 11.9018 2.84277 13.1973C2.84277 14.4929 3.89191 15.5427 5.1875 15.543C6.48331 15.543 7.5332 14.4931 7.5332 13.1973C7.53296 11.9017 6.48316 10.8516 5.1875 10.8516ZM13.9863 2.05371C12.6907 2.05393 11.6406 3.10375 11.6406 4.39941C11.6407 5.69501 12.6908 6.74489 13.9863 6.74512C15.2821 6.74512 16.3319 5.69514 16.332 4.39941C16.332 3.10361 15.2821 2.05371 13.9863 2.05371Z" fill="#292929"/>
</svg>
