<svg width="32" height="32" viewBox="0 0 32 32" fill="none" xmlns="http://www.w3.org/2000/svg">
<g id="bigquery/colored-32" clip-path="url(#clip0_390_8635)">
<g id="Shape">
<path id="Shape_2" fill-rule="evenodd" clip-rule="evenodd" d="M8.62677 14.3579V18.0489C9.20647 19.0456 10.0273 19.8818 11.0095 20.4829V14.3579H8.62677Z" fill="#809FE1"/>
<path id="Shape_3" fill-rule="evenodd" clip-rule="evenodd" d="M13.0442 10.9722V21.5112C13.5374 21.5853 14.042 21.6308 14.5602 21.6308C15.0334 21.6308 15.4938 21.5899 15.9463 21.528V10.9722H13.0442Z" fill="#5982DB"/>
<path id="Shape_4" fill-rule="evenodd" clip-rule="evenodd" d="M18.2943 15.809V20.4141C19.2909 19.7781 20.115 18.901 20.6776 17.8579V15.809H18.2943Z" fill="#809FE1"/>
<path id="Shape_5" fill-rule="evenodd" clip-rule="evenodd" d="M24.0352 22.0425L22.0433 24.0354C21.8127 24.2653 21.8127 24.6408 22.0433 24.8714L27.0002 29.827C27.2301 30.0575 27.6063 30.0575 27.8362 29.827L29.8281 27.836C30.0573 27.6061 30.0573 27.23 29.8281 27.0004L24.8705 22.0425C24.6412 21.813 24.2645 21.813 24.0352 22.0425Z" fill="#3367D6"/>
<path id="Shape_6" fill-rule="evenodd" clip-rule="evenodd" d="M14.6146 2C7.648 2 2 7.6479 2 14.6152C2 21.5819 7.648 27.2299 14.6146 27.2299C21.5812 27.2299 27.2292 21.5819 27.2292 14.6153C27.2293 7.6479 21.5813 2 14.6146 2ZM14.6147 23.9611C9.4529 23.9611 5.2688 19.777 5.2688 14.6152C5.2688 9.4534 9.4529 5.2684 14.6147 5.2684C19.7765 5.2684 23.9612 9.4535 23.9612 14.6152C23.9612 19.7769 19.7764 23.9611 14.6147 23.9611Z" fill="#5982DB"/>
</g>
</g>
<defs>
<clipPath id="clip0_390_8635">
<rect width="32" height="32" fill="white"/>
</clipPath>
</defs>
</svg>
