<svg width="24" height="26" viewBox="0 0 24 26" fill="none" xmlns="http://www.w3.org/2000/svg">
<path fill-rule="evenodd" clip-rule="evenodd" d="M3.67742 11.4854V17.3484L7.78533 14.5661C8.04597 15.2779 8.47787 15.9065 9.03083 16.4018L4.79147 19.273L10.9874 23.0974V17.433C11.3316 17.5165 11.6911 17.5608 12.0608 17.5608C12.454 17.5608 12.8356 17.5108 13.1994 17.4167L13.1994 23.095L16.4775 21.0716L17.4988 22.8126L12.0916 26L1.46565 19.7364V11.4854H3.67742ZM16.3278 14.5894L20.0128 17.0852C20.4151 16.8282 20.8925 16.6792 21.4045 16.6792C22.838 16.6792 24 17.846 24 19.2854C24 20.7247 22.838 21.8915 21.4045 21.8915C19.9711 21.8915 18.8091 20.7247 18.8091 19.2854C18.8091 19.176 18.8158 19.0682 18.8289 18.9624L15.0724 16.4182C15.6282 15.9259 16.0634 15.2995 16.3278 14.5894ZM21.4045 18.2429C20.8312 18.2429 20.3664 18.7097 20.3664 19.2854C20.3664 19.8611 20.8312 20.3278 21.4045 20.3278C21.9779 20.3278 22.4427 19.8611 22.4427 19.2854C22.4427 18.7097 21.9779 18.2429 21.4045 18.2429ZM12.0608 10.3749C13.4981 10.3749 14.6632 11.5448 14.6632 12.9879C14.6632 14.4311 13.4981 15.601 12.0608 15.601C10.6236 15.601 9.45854 14.4311 9.45854 12.9879C9.45854 11.5448 10.6236 10.3749 12.0608 10.3749ZM12.0916 0L22.7175 6.26361V14.5557H20.5054V8.63006L16.3492 11.4451C16.0943 10.7308 15.6675 10.0988 15.1188 9.59926L19.3748 6.71673L13.1994 2.90501L13.1994 8.55909C12.8356 8.46508 12.454 8.41503 12.0608 8.41503C11.6911 8.41503 11.3316 8.45928 10.9874 8.5428V2.90256L7.49685 5.05705L6.45789 3.32084L12.0916 0ZM2.5954 4.10847C4.02885 4.10847 5.19081 5.27528 5.19081 6.71459C5.19081 6.82253 5.18432 6.92886 5.17163 7.0333L8.98475 9.6159C8.43887 10.1182 8.01535 10.7525 7.76427 11.4684L3.99056 8.91257C3.58769 9.17097 3.10895 9.32078 2.5954 9.32078C1.16201 9.32078 0 8.15396 0 6.71459C0 5.27528 1.16201 4.10847 2.5954 4.10847ZM2.5954 5.67218C2.02205 5.67218 1.55725 6.13892 1.55725 6.71459C1.55725 7.29033 2.02205 7.75707 2.5954 7.75707C3.16877 7.75707 3.63358 7.29033 3.63358 6.71459C3.63358 6.13892 3.16877 5.67218 2.5954 5.67218Z" fill="#424242"/>
</svg>
