<svg width="18" height="18" viewBox="0 0 18 18" fill="none" xmlns="http://www.w3.org/2000/svg">
<g clip-path="url(#clip0_1227_2582)">
<path d="M7.5 12C7.08333 12 6.72917 11.8542 6.4375 11.5625C6.14583 11.2708 6 10.9167 6 10.5V4.5C6 4.08333 6.14583 3.72917 6.4375 3.4375C6.72917 3.14583 7.08333 3 7.5 3H13.5C13.9167 3 14.2708 3.14583 14.5625 3.4375C14.8542 3.72917 15 4.08333 15 4.5V10.5C15 10.9167 14.8542 11.2708 14.5625 11.5625C14.2708 11.8542 13.9167 12 13.5 12H7.5ZM7.5 4.5V10.5H13.5V4.5H7.5ZM4.5 15C4.08333 15 3.72917 14.8542 3.4375 14.5625C3.14583 14.2708 3 13.9167 3 13.5V7H4.5V13.5H11V15H4.5ZM7.5 4.5V10.5V4.5Z" fill="#8A8A8A"/>
</g>
<defs>
<clipPath id="clip0_1227_2582">
<rect width="18" height="18" fill="white"/>
</clipPath>
</defs>
</svg>
