<svg width="52" height="52" viewBox="0 0 52 52" fill="none" xmlns="http://www.w3.org/2000/svg">
<rect width="52" height="52" fill="white"/>
<path fill-rule="evenodd" clip-rule="evenodd" d="M30.2222 15.4444C30.2222 17.7763 28.3318 19.6666 25.9999 19.6666C23.6681 19.6666 21.7777 17.7763 21.7777 15.4444C21.7777 13.1125 23.6681 11.2222 25.9999 11.2222C28.3318 11.2222 30.2222 13.1125 30.2222 15.4444ZM15.4444 30.2222C17.7763 30.2222 19.6666 28.3318 19.6666 25.9999C19.6666 23.6681 17.7763 21.7777 15.4444 21.7777C13.1125 21.7777 11.2222 23.6681 11.2222 25.9999C11.2222 28.3318 13.1125 30.2222 15.4444 30.2222ZM36.5555 30.2222C38.8874 30.2222 40.7777 28.3318 40.7777 25.9999C40.7777 23.6681 38.8874 21.7777 36.5555 21.7777C34.2236 21.7777 32.3333 23.6681 32.3333 25.9999C32.3333 28.3318 34.2236 30.2222 36.5555 30.2222ZM25.9999 40.7777C28.3318 40.7777 30.2222 38.8874 30.2222 36.5555C30.2222 34.2236 28.3318 32.3333 25.9999 32.3333C23.6681 32.3333 21.7777 34.2236 21.7777 36.5555C21.7777 38.8874 23.6681 40.7777 25.9999 40.7777ZM29.1666 25.9999C29.1666 27.7488 27.7488 29.1666 25.9999 29.1666C24.251 29.1666 22.8333 27.7488 22.8333 25.9999C22.8333 24.251 24.251 22.8333 25.9999 22.8333C27.7488 22.8333 29.1666 24.251 29.1666 25.9999ZM17.5555 19.6666C18.7214 19.6666 19.6666 18.7214 19.6666 17.5555C19.6666 16.3896 18.7214 15.4444 17.5555 15.4444C16.3896 15.4444 15.4444 16.3896 15.4444 17.5555C15.4444 18.7214 16.3896 19.6666 17.5555 19.6666ZM19.6666 34.4444C19.6666 35.6103 18.7214 36.5555 17.5555 36.5555C16.3896 36.5555 15.4444 35.6103 15.4444 34.4444C15.4444 33.2785 16.3896 32.3333 17.5555 32.3333C18.7214 32.3333 19.6666 33.2785 19.6666 34.4444ZM34.4444 19.6666C35.6103 19.6666 36.5555 18.7214 36.5555 17.5555C36.5555 16.3896 35.6103 15.4444 34.4444 15.4444C33.2785 15.4444 32.3333 16.3896 32.3333 17.5555C32.3333 18.7214 33.2785 19.6666 34.4444 19.6666ZM36.5555 34.4444C36.5555 35.6103 35.6103 36.5555 34.4444 36.5555C33.2785 36.5555 32.3333 35.6103 32.3333 34.4444C32.3333 33.2785 33.2785 32.3333 34.4444 32.3333C35.6103 32.3333 36.5555 33.2785 36.5555 34.4444Z" fill="#3367D6"/>
</svg>
