<svg width="52" height="52" viewBox="0 0 52 52" fill="none" xmlns="http://www.w3.org/2000/svg">
<path fill-rule="evenodd" clip-rule="evenodd" d="M30.2222 15.4445C30.2222 17.7763 28.3318 19.6667 25.9999 19.6667C23.6681 19.6667 21.7777 17.7763 21.7777 15.4445C21.7777 13.1126 23.6681 11.2222 25.9999 11.2222C28.3318 11.2222 30.2222 13.1126 30.2222 15.4445ZM15.4444 30.2222C17.7763 30.2222 19.6666 28.3319 19.6666 26C19.6666 23.6681 17.7763 21.7778 15.4444 21.7778C13.1125 21.7778 11.2222 23.6681 11.2222 26C11.2222 28.3319 13.1125 30.2222 15.4444 30.2222ZM36.5555 30.2222C38.8874 30.2222 40.7777 28.3319 40.7777 26C40.7777 23.6681 38.8874 21.7778 36.5555 21.7778C34.2236 21.7778 32.3333 23.6681 32.3333 26C32.3333 28.3319 34.2236 30.2222 36.5555 30.2222ZM25.9999 40.7778C28.3318 40.7778 30.2222 38.8874 30.2222 36.5556C30.2222 34.2237 28.3318 32.3333 25.9999 32.3333C23.6681 32.3333 21.7777 34.2237 21.7777 36.5556C21.7777 38.8874 23.6681 40.7778 25.9999 40.7778ZM29.1666 26C29.1666 27.7489 27.7488 29.1667 25.9999 29.1667C24.251 29.1667 22.8333 27.7489 22.8333 26C22.8333 24.2511 24.251 22.8333 25.9999 22.8333C27.7488 22.8333 29.1666 24.2511 29.1666 26ZM17.5555 19.6667C18.7214 19.6667 19.6666 18.7215 19.6666 17.5556C19.6666 16.3896 18.7214 15.4445 17.5555 15.4445C16.3896 15.4445 15.4444 16.3896 15.4444 17.5556C15.4444 18.7215 16.3896 19.6667 17.5555 19.6667ZM19.6666 34.4445C19.6666 35.6104 18.7214 36.5556 17.5555 36.5556C16.3896 36.5556 15.4444 35.6104 15.4444 34.4445C15.4444 33.2785 16.3896 32.3333 17.5555 32.3333C18.7214 32.3333 19.6666 33.2785 19.6666 34.4445ZM34.4444 19.6667C35.6103 19.6667 36.5555 18.7215 36.5555 17.5556C36.5555 16.3896 35.6103 15.4445 34.4444 15.4445C33.2785 15.4445 32.3333 16.3896 32.3333 17.5556C32.3333 18.7215 33.2785 19.6667 34.4444 19.6667ZM36.5555 34.4445C36.5555 35.6104 35.6103 36.5556 34.4444 36.5556C33.2785 36.5556 32.3333 35.6104 32.3333 34.4445C32.3333 33.2785 33.2785 32.3333 34.4444 32.3333C35.6103 32.3333 36.5555 33.2785 36.5555 34.4445Z" fill="#3367D6"/>
</svg>
