<svg width="15" height="15" viewBox="0 0 15 15" fill="none" xmlns="http://www.w3.org/2000/svg">
<path fill-rule="evenodd" clip-rule="evenodd" d="M14.4922 7.5C14.4922 6.33973 14.2099 5.2454 13.7103 4.28193L12.1948 5.79737C12.3873 6.3288 12.4922 6.90215 12.4922 7.5C12.4922 10.2614 10.2536 12.5 7.49219 12.5C4.73076 12.5 2.49219 10.2614 2.49219 7.5C2.49219 4.73857 4.73076 2.5 7.49219 2.5V7.5L11.0277 3.96446L11.4922 3.5L12.4419 2.55025C11.1752 1.2835 9.42519 0.5 7.49219 0.5C3.62619 0.5 0.492188 3.634 0.492188 7.5C0.492188 11.366 3.62619 14.5 7.49219 14.5C11.3582 14.5 14.4922 11.366 14.4922 7.5Z" fill="#188038"/>
</svg>
