<svg width="24" height="24" viewBox="0 0 24 24" fill="none" xmlns="http://www.w3.org/2000/svg">
<g clip-path="url(#clip0_3065_14721)">
<path d="M12 21C9.48333 21 7.35 20.6167 5.6 19.85C3.86667 19.0667 3 18.1167 3 17V7C3 5.9 3.875 4.95833 5.625 4.175C7.39167 3.39167 9.51667 3 12 3C14.4833 3 16.6 3.39167 18.35 4.175C20.1167 4.95833 21 5.9 21 7V17C21 18.1167 20.125 19.0667 18.375 19.85C16.6417 20.6167 14.5167 21 12 21ZM12 9.025C13.4833 9.025 14.975 8.81667 16.475 8.4C17.975 7.96667 18.8167 7.50833 19 7.025C18.8167 6.54167 17.975 6.08333 16.475 5.65C14.9917 5.21667 13.5 5 12 5C10.4833 5 8.99167 5.21667 7.525 5.65C6.075 6.06667 5.23333 6.525 5 7.025C5.23333 7.525 6.075 7.98333 7.525 8.4C8.99167 8.81667 10.4833 9.025 12 9.025ZM12 14C12.7 14 13.375 13.9667 14.025 13.9C14.675 13.8333 15.2917 13.7417 15.875 13.625C16.475 13.4917 17.0333 13.3333 17.55 13.15C18.0833 12.9667 18.5667 12.7583 19 12.525V9.525C18.5667 9.75833 18.0833 9.96667 17.55 10.15C17.0333 10.3333 16.475 10.4917 15.875 10.625C15.2917 10.7417 14.675 10.8333 14.025 10.9C13.375 10.9667 12.7 11 12 11C11.3 11 10.6167 10.9667 9.95 10.9C9.28333 10.8333 8.65 10.7417 8.05 10.625C7.46667 10.4917 6.91667 10.3333 6.4 10.15C5.88333 9.96667 5.41667 9.75833 5 9.525V12.525C5.41667 12.7583 5.88333 12.9667 6.4 13.15C6.91667 13.3333 7.46667 13.4917 8.05 13.625C8.65 13.7417 9.28333 13.8333 9.95 13.9C10.6167 13.9667 11.3 14 12 14ZM12 19C12.7667 19 13.5417 18.9417 14.325 18.825C15.125 18.7083 15.8583 18.5583 16.525 18.375C17.1917 18.175 17.75 17.9583 18.2 17.725C18.65 17.475 18.9167 17.225 19 16.975V14.525C18.5667 14.7583 18.0833 14.9667 17.55 15.15C17.0333 15.3333 16.475 15.4917 15.875 15.625C15.2917 15.7417 14.675 15.8333 14.025 15.9C13.375 15.9667 12.7 16 12 16C11.3 16 10.6167 15.9667 9.95 15.9C9.28333 15.8333 8.65 15.7417 8.05 15.625C7.46667 15.4917 6.91667 15.3333 6.4 15.15C5.88333 14.9667 5.41667 14.7583 5 14.525V17C5.08333 17.25 5.34167 17.4917 5.775 17.725C6.225 17.9583 6.78333 18.175 7.45 18.375C8.11667 18.5583 8.85 18.7083 9.65 18.825C10.45 18.9417 11.2333 19 12 19Z" fill="#444746"/>
</g>
<defs>
<clipPath id="clip0_3065_14721">
<rect width="24" height="24" fill="white"/>
</clipPath>
</defs>
</svg>
