<svg width="32" height="32" viewBox="0 0 32 32" fill="none" xmlns="http://www.w3.org/2000/svg">
<g clip-path="url(#clip0_1227_3409)">
<path fill-rule="evenodd" clip-rule="evenodd" d="M25.3562 19.5131L9.06505 28.9287L7.5093 26.237L23.8005 16.8213L25.3562 19.5131Z" fill="#85A4E6"/>
<path fill-rule="evenodd" clip-rule="evenodd" d="M9.00774 25.8615L9.00024 7.04547L11.9935 7.04407L12.0002 23.5971L9.00774 25.8615Z" fill="#85A4E6"/>
<path fill-rule="evenodd" clip-rule="evenodd" d="M12.103 12.3096L11.6797 8.52124L27.9792 17.9225L26.4259 20.6157L12.103 12.3096Z" fill="#85A4E6"/>
<path fill-rule="evenodd" clip-rule="evenodd" d="M19.8295 13.2219L11.6797 8.52124L12.103 12.3096L14.5156 13.6874C16.4101 14.3677 18.77 14.0119 19.8295 13.2219Z" fill="#3367D6"/>
<path fill-rule="evenodd" clip-rule="evenodd" d="M9.8071 10.0613L9.8069 10.061C9.2795 9.1476 9.0004 8.1049 9 7.0453C8.9994 5.4316 9.627 3.9137 10.768 2.7718C11.909 1.6299 13.4262 1.0007 15.0402 1C17.1939 0.999001 19.2013 2.158 20.2791 4.0245C20.8065 4.9379 21.0854 5.9808 21.086 7.0402C21.0871 10.3725 18.3772 13.0846 15.0453 13.0858C12.8919 13.0863 10.8846 11.9275 9.8071 10.0613ZM17.5866 5.579C17.0627 4.6716 16.0874 4.1083 15.0416 4.1088C14.258 4.1093 13.5214 4.4147 12.9675 4.9691C12.4136 5.5235 12.1088 6.2604 12.109 7.0441C12.1093 7.5589 12.2443 8.0647 12.4993 8.5064C13.0232 9.4138 13.998 9.977 15.0443 9.9766C16.662 9.9762 17.9775 8.6593 17.9769 7.0413C17.9768 6.5268 17.8418 6.021 17.5866 5.579Z" fill="#85A4E6"/>
<path fill-rule="evenodd" clip-rule="evenodd" d="M9.00439 17.5057L9.00779 25.8615L12.0002 23.597L11.9995 20.9899C11.6524 19.282 10.2041 18.0406 9.00439 17.5057Z" fill="#3367D6"/>
<path fill-rule="evenodd" clip-rule="evenodd" d="M18.122 23.6935L25.3569 19.5124L21.8246 17.9619L19.8294 19.116C18.7904 20.2079 17.9676 22.3548 18.122 23.6935Z" fill="#3367D6"/>
<path fill-rule="evenodd" clip-rule="evenodd" d="M0.809447 26.7189L0.808247 26.7168C-0.857153 23.8325 0.134247 20.1297 3.01805 18.4633C4.41535 17.6555 6.04385 17.4406 7.60325 17.8577C9.16265 18.2748 10.466 19.2741 11.2736 20.6716C12.9402 23.558 11.949 27.2606 9.06545 28.9273C6.18015 30.5947 2.47665 29.604 0.809447 26.7189ZM8.58255 22.2286C8.18975 21.5488 7.55685 21.0637 6.79975 20.861C6.04275 20.6586 5.25215 20.7631 4.57365 21.1552C3.17355 21.9643 2.69215 23.762 3.50085 25.1626L3.50135 25.1634C4.31085 26.5642 6.10905 27.0451 7.50985 26.2356C8.90975 25.4262 9.39115 23.6289 8.58255 22.2286Z" fill="#85A4E6"/>
<path fill-rule="evenodd" clip-rule="evenodd" d="M19.7282 26.1829C19.728 26.1826 19.728 26.1826 19.728 26.1826C18.6514 24.3179 18.6503 22.0015 19.7253 20.1381C20.5318 18.7399 21.8347 17.7395 23.3937 17.321C24.9527 16.9026 26.5811 17.1162 27.9793 17.9226C28.8986 18.4527 29.6636 19.2167 30.1919 20.1316C31.2685 21.9963 31.2696 24.3127 30.1945 26.1765C29.388 27.5747 28.0851 28.5751 26.5264 28.9934C24.9674 29.4118 23.3388 29.198 21.9405 28.3913C21.0213 27.8615 20.2563 27.0976 19.7282 26.1829ZM27.4994 21.6862C27.2438 21.2434 26.8726 20.8733 26.426 20.6158C25.0246 19.8074 23.2267 20.2901 22.4186 21.6913C21.8965 22.5965 21.8973 23.7217 22.4206 24.628C22.6762 25.0708 23.0474 25.4409 23.494 25.6984C24.1732 26.0902 24.9637 26.194 25.7205 25.9909C26.4775 25.7877 27.1097 25.3021 27.5014 24.6233C28.0233 23.7182 28.0227 22.5925 27.4994 21.6862Z" fill="#85A4E6"/>
<path fill-rule="evenodd" clip-rule="evenodd" d="M11.9864 22.6326C11.9864 22.6326 8.23897 25.814 7.50977 26.2356L12.0727 23.5987C12.0676 23.2586 12.0497 22.9713 11.9864 22.6326Z" fill="#5C85DE"/>
<path fill-rule="evenodd" clip-rule="evenodd" d="M13.0359 12.7301C13.0359 12.7301 12.1011 7.55887 12.1008 7.04407L12.103 12.3097C12.4015 12.4746 12.7132 12.6162 13.0359 12.7301Z" fill="#5C85DE"/>
<path fill-rule="evenodd" clip-rule="evenodd" d="M21.2841 18.3535C21.2841 18.3535 25.696 20.1948 26.426 20.6158L21.861 17.9828C21.567 18.1598 21.5438 18.1301 21.2841 18.3535Z" fill="#5C85DE"/>
</g>
<defs>
<clipPath id="clip0_1227_3409">
<rect width="32" height="32" fill="white"/>
</clipPath>
</defs>
</svg>
