<svg width="18" height="18" viewBox="0 0 18 18" fill="none" xmlns="http://www.w3.org/2000/svg">
<path d="M4 14H8V10H4V14ZM10 14H14V10H10V14ZM4 8H8V4H4V8ZM10 8H14V4H10V8ZM2 18C1.45 18 0.975 17.8083 0.575 17.425C0.191667 17.025 0 16.55 0 16V2C0 1.45 0.191667 0.983333 0.575 0.599999C0.975 0.199999 1.45 -1.43051e-06 2 -1.43051e-06H16C16.55 -1.43051e-06 17.0167 0.199999 17.4 0.599999C17.8 0.983333 18 1.45 18 2V16C18 16.55 17.8 17.025 17.4 17.425C17.0167 17.8083 16.55 18 16 18H2ZM2 16H16V2H2V16ZM2 2V16V2Z" fill="#444746"/>
</svg>
