<svg width="18" height="18" viewBox="0 0 18 18" fill="none" xmlns="http://www.w3.org/2000/svg">
<path d="M9 15.3C7.2375 15.3 5.74375 15.0375 4.51875 14.5125C3.30625 13.9875 2.7 13.35 2.7 12.6V5.4C2.7 4.65 3.3125 4.0125 4.5375 3.4875C5.7625 2.9625 7.25 2.7 9 2.7C10.7375 2.7 12.2187 2.9625 13.4437 3.4875C14.6812 4.0125 15.3 4.65 15.3 5.4V12.6C15.3 13.35 14.6875 13.9875 13.4625 14.5125C12.2375 15.0375 10.75 15.3 9 15.3ZM9 6.75C10.075 6.75 11.1125 6.61875 12.1125 6.35625C13.1125 6.08125 13.725 5.7625 13.95 5.4C13.725 5.05 13.1062 4.7375 12.0937 4.4625C11.0937 4.1875 10.0625 4.05 9 4.05C7.925 4.05 6.88125 4.1875 5.86875 4.4625C4.86875 4.7375 4.2625 5.05 4.05 5.4C4.2625 5.7625 4.8625 6.08125 5.85 6.35625C6.85 6.61875 7.9 6.75 9 6.75ZM9 10.35C9.525 10.35 10.025 10.325 10.5 10.275C10.975 10.2125 11.4187 10.1312 11.8312 10.0312C12.2562 9.93125 12.6437 9.80625 12.9937 9.65625C13.3562 9.49375 13.675 9.3125 13.95 9.1125V7.06875C13.65 7.23125 13.3125 7.38125 12.9375 7.51875C12.575 7.64375 12.1812 7.75 11.7562 7.8375C11.3312 7.925 10.8875 7.99375 10.425 8.04375C9.9625 8.08125 9.4875 8.1 9 8.1C8.5 8.1 8.0125 8.08125 7.5375 8.04375C7.075 7.99375 6.63125 7.925 6.20625 7.8375C5.79375 7.75 5.4 7.64375 5.025 7.51875C4.6625 7.38125 4.3375 7.23125 4.05 7.06875V9.1125C4.325 9.3125 4.6375 9.49375 4.9875 9.65625C5.3375 9.80625 5.71875 9.93125 6.13125 10.0312C6.55625 10.1312 7.00625 10.2125 7.48125 10.275C7.96875 10.325 8.475 10.35 9 10.35ZM9 13.95C9.55 13.95 10.1 13.9125 10.65 13.8375C11.2125 13.75 11.725 13.6437 12.1875 13.5187C12.6625 13.3812 13.0562 13.2312 13.3687 13.0687C13.6937 12.9062 13.8875 12.7375 13.95 12.5625V10.6687C13.65 10.8312 13.3125 10.9812 12.9375 11.1187C12.575 11.2437 12.1812 11.35 11.7562 11.4375C11.3312 11.525 10.8875 11.5937 10.425 11.6437C9.9625 11.6812 9.4875 11.7 9 11.7C8.5 11.7 8.0125 11.6812 7.5375 11.6437C7.075 11.5937 6.63125 11.525 6.20625 11.4375C5.79375 11.35 5.4 11.2437 5.025 11.1187C4.6625 10.9812 4.3375 10.8312 4.05 10.6687V12.6C4.1125 12.7625 4.3 12.925 4.6125 13.0875C4.9375 13.25 5.33125 13.3937 5.79375 13.5187C6.26875 13.6437 6.7875 13.75 7.35 13.8375C7.9125 13.9125 8.4625 13.95 9 13.95Z" fill="#616161"/>
</svg>
