<svg width="18" height="18" viewBox="0 0 18 18" fill="none" xmlns="http://www.w3.org/2000/svg">
<g id="18x18/query" clip-path="url(#clip0_416_1883)">
<path id="Shape" fill-rule="evenodd" clip-rule="evenodd" d="M8.5 15C9.93884 15 11.2684 14.5326 12.3451 13.7414L15.2677 16.664L16.6819 15.2498L13.7566 12.3245C14.5386 11.2514 15 9.92963 15 8.5C15 4.90979 12.0902 2 8.5 2C4.90979 2 2 4.90979 2 8.5C2 12.0902 4.90979 15 8.5 15ZM13 8.5C13 10.9853 10.9853 13 8.5 13C6.01472 13 4 10.9853 4 8.5C4 6.01472 6.01472 4 8.5 4C10.9853 4 13 6.01472 13 8.5ZM11 10.9495C10.7129 11.2424 10.3748 11.4851 10 11.6632V9H11V10.9495ZM6 10.9495C6.28706 11.2424 6.6252 11.4851 7 11.6632V8H6V10.9495ZM8.5 12C8.66976 12 8.8367 11.9879 9 11.9646V7H8V11.9646C8.1633 11.9879 8.33024 12 8.5 12Z" fill="#616161"/>
</g>
<defs>
<clipPath id="clip0_416_1883">
<rect width="18" height="18" fill="white"/>
</clipPath>
</defs>
</svg>
