<svg width="18" height="18" viewBox="0 0 18 18" fill="none" xmlns="http://www.w3.org/2000/svg">
<g clip-path="url(#clip0_1227_2584)">
<path d="M4.78333 16.975C4.30972 16.975 3.89722 16.8069 3.54583 16.4708C3.20972 16.1194 3.04167 15.7069 3.04167 15.2333V3.775H2.03333V2.03333H6.525V1.025H11.475V2.03333H15.9667V3.775H14.9583V15.2333C14.9583 15.7069 14.7826 16.1194 14.4313 16.4708C14.0951 16.8069 13.6903 16.975 13.2167 16.975H4.78333ZM13.2167 3.775H4.78333V15.2333H13.2167V3.775ZM6.525 13.4917H8.26667V5.51667H6.525V13.4917ZM9.73333 13.4917H11.475V5.51667H9.73333V13.4917ZM4.78333 3.775V15.2333V3.775Z" fill="#444746"/>
</g>
<defs>
<clipPath id="clip0_1227_2584">
<rect width="18" height="18" fill="white"/>
</clipPath>
</defs>
</svg>
