<svg width="18" height="20" viewBox="0 0 18 20" fill="none" xmlns="http://www.w3.org/2000/svg">
<g clip-path="url(#clip0_3347_16949)">
<path d="M3.775 18.9833C3.30139 18.9833 2.88889 18.8153 2.5375 18.4792C2.20139 18.1278 2.03333 17.7153 2.03333 17.2417V2.75833C2.03333 2.28472 2.20139 1.87986 2.5375 1.54375C2.88889 1.19236 3.30139 1.01667 3.775 1.01667H11.0167L15.9667 5.96667V17.2417C15.9667 17.7153 15.791 18.1278 15.4396 18.4792C15.1035 18.8153 14.6986 18.9833 14.225 18.9833H3.775ZM10.0083 6.975V2.75833H3.775V17.2417H14.225V6.975H10.0083ZM3.775 2.75833V7.20417V2.75833V7.20417V17.2417V2.75833Z" fill="#444746"/>
</g>
<defs>
<clipPath id="clip0_3347_16949">
<rect width="18" height="20" fill="white"/>
</clipPath>
</defs>
</svg>