<svg width="18" height="18" viewBox="0 0 18 18" fill="none" xmlns="http://www.w3.org/2000/svg">
<g clip-path="url(#clip0_3246_36344)">
<path fill-rule="evenodd" clip-rule="evenodd" d="M9 16C12.5262 16 15.4438 13.3921 15.9291 10H13.9C13.4368 12.2824 11.4191 14 9 14C6.2384 14 4 11.7616 4 9C4 6.2384 6.2384 4 9 4C10.3808 4 11.6308 4.5596 12.5356 5.4644L10 8H16V2L13.9497 4.05034C12.6829 2.78356 10.9329 2 9 2C5.13425 2 2 5.13425 2 9C2 12.8658 5.13425 16 9 16Z" fill="black"/>
</g>
<defs>
<clipPath id="clip0_3246_36344">
<rect width="18" height="18" fill="white"/>
</clipPath>
</defs>
</svg>