<svg width="18" height="18" viewBox="0 0 18 18" fill="none" xmlns="http://www.w3.org/2000/svg">
<path d="M4.94998 16.2C4.57498 16.2 4.25623 16.0688 3.99373 15.8063C3.73123 15.5438 3.59998 15.225 3.59998 14.85V3.15C3.59998 2.775 3.73123 2.45625 3.99373 2.19375C4.25623 1.93125 4.57498 1.8 4.94998 1.8H10.8L14.4 5.4V14.85C14.4 15.225 14.2687 15.5438 14.0062 15.8063C13.7437 16.0688 13.425 16.2 13.05 16.2H4.94998ZM9.89998 6.3V3.15H4.94998V14.85H13.05V6.3H9.89998ZM4.94998 3.15V6.69375V3.15V6.69375V14.85V3.15Z" fill="white"/>
</svg>
