<svg width="14" height="14" viewBox="0 0 14 14" fill="none" xmlns="http://www.w3.org/2000/svg">
<path fill-rule="evenodd" clip-rule="evenodd" d="M7 0C3.136 0 0 3.136 0 7C0 10.864 3.136 14 7 14C10.864 14 14 10.864 14 7C14 3.136 10.864 0 7 0ZM6.3 11.9V10.5H7.7V11.9H6.3ZM8.519 7.119L9.149 6.475C9.548 6.076 9.8 5.516 9.8 4.9C9.8 3.353 8.547 2.1 7 2.1C5.453 2.1 4.2 3.353 4.2 4.9H5.6C5.6 4.13 6.23 3.5 7 3.5C7.77 3.5 8.4 4.13 8.4 4.9C8.4 5.285 8.246 5.635 7.987 5.887L7.119 6.769C6.615 7.28 6.3 7.98 6.3 8.75V9.1H7.7C7.7 8.05 8.015 7.63 8.519 7.119Z" fill="black"/>
</svg>
