<svg width="18" height="18" viewBox="0 0 18 18" fill="none" xmlns="http://www.w3.org/2000/svg">
<g clip-path="url(#clip0_5710_31114)">
<path d="M4.51875 7.74375L5.98125 8.23125C6.16875 7.88125 6.3625 7.54375 6.5625 7.21875C6.7625 6.88125 6.975 6.55 7.2 6.225L6.16875 6.09375L4.51875 7.74375ZM7.10625 8.9625L9.01875 10.875C9.61875 10.5625 10.1875 10.225 10.725 9.8625C11.2625 9.4875 11.7688 9.0625 12.2438 8.5875C12.9938 7.8375 13.6125 7.00625 14.1 6.09375C14.6 5.18125 14.85 4.2 14.85 3.15C13.7875 3.15 12.8 3.39375 11.8875 3.88125C10.975 4.36875 10.1438 4.9875 9.39375 5.7375C8.91875 6.2125 8.49375 6.71875 8.11875 7.25625C7.74375 7.79375 7.40625 8.3625 7.10625 8.9625ZM10.2938 7.70625C10.0313 7.44375 9.9 7.125 9.9 6.75C9.9 6.375 10.0313 6.05625 10.2938 5.79375C10.5563 5.53125 10.875 5.4 11.25 5.4C11.625 5.4 11.9438 5.53125 12.2063 5.79375C12.4688 6.05625 12.6 6.375 12.6 6.75C12.6 7.125 12.4688 7.44375 12.2063 7.70625C11.9438 7.96875 11.625 8.1 11.25 8.1C10.875 8.1 10.5563 7.96875 10.2938 7.70625ZM10.2563 13.4812L11.9063 11.8312L11.775 10.8C11.45 11.025 11.1188 11.2375 10.7813 11.4375C10.4563 11.6375 10.1188 11.8312 9.76875 12.0187L10.2563 13.4812ZM16.0125 1.96875C16.3375 3.24375 16.2188 4.55625 15.6563 5.90625C15.1063 7.25625 14.325 8.4375 13.3125 9.45C13.3125 9.45 13.2625 9.50625 13.1625 9.61875C13.0625 9.71875 13.0125 9.76875 13.0125 9.76875L13.2375 11.6625C13.2625 11.875 13.2375 12.0812 13.1625 12.2812C13.1 12.4687 12.9938 12.6375 12.8438 12.7875L9.65625 15.975L8.38125 12.1687L5.85 9.61875L2.025 8.34375L5.2125 5.1375C5.3625 4.9875 5.53125 4.88125 5.71875 4.81875C5.91875 4.74375 6.125 4.71875 6.3375 4.74375L8.23125 4.9875C8.23125 4.9875 8.2875 4.93125 8.4 4.81875C8.525 4.70625 8.5875 4.65 8.5875 4.65C9.6 3.6375 10.7688 2.85625 12.0938 2.30625C13.4313 1.74375 14.7375 1.63125 16.0125 1.96875ZM3.3375 11.7937C3.7375 11.4187 4.20625 11.2375 4.74375 11.25C5.29375 11.25 5.76875 11.45 6.16875 11.85C6.54375 12.225 6.73125 12.6812 6.73125 13.2188C6.74375 13.7437 6.575 14.2062 6.225 14.6062C5.6875 15.2187 5.0125 15.6062 4.2 15.7687C3.4 15.9187 2.6 16.0625 1.8 16.2C1.9375 15.4125 2.08125 14.625 2.23125 13.8375C2.38125 13.0375 2.75 12.3562 3.3375 11.7937ZM4.18125 12.8625C3.96875 13.075 3.825 13.325 3.75 13.6125C3.6875 13.9 3.6125 14.1875 3.525 14.475C3.8125 14.4 4.09375 14.325 4.36875 14.25C4.65625 14.175 4.9 14.0312 5.1 13.8187C5.2375 13.6687 5.31875 13.4937 5.34375 13.2937C5.38125 13.0937 5.33125 12.925 5.19375 12.7875C5.05625 12.65 4.8875 12.5937 4.6875 12.6187C4.5 12.6437 4.33125 12.725 4.18125 12.8625Z" fill="#616161"/>
</g>
<defs>
<clipPath id="clip0_5710_31114">
<rect width="18" height="18" fill="white"/>
</clipPath>
</defs>
</svg>
