<svg width="26" height="26" viewBox="0 0 26 26" fill="none" xmlns="http://www.w3.org/2000/svg">
<path d="M2.8 23.2H23.2V10.0958L15.9042 2.8H2.8V23.2ZM2.8 25.75C2.09167 25.75 1.48958 25.5021 0.99375 25.0062C0.497917 24.5104 0.25 23.9083 0.25 23.2V2.8C0.25 2.09166 0.497917 1.48958 0.99375 0.993749C1.48958 0.497915 2.09167 0.249998 2.8 0.249998H16.9667L25.75 9.03333V23.2C25.75 23.9083 25.5021 24.5104 25.0063 25.0062C24.5104 25.5021 23.9083 25.75 23.2 25.75H2.8ZM5.91667 19.9062H20.0833V17.3917H5.91667V19.9062ZM5.91667 14.275H20.0833V11.725H5.91667V14.275ZM5.91667 8.60833H15.7625V6.09375H5.91667V8.60833ZM2.8 23.2V2.8V10.0958V23.2Z" fill="#3367D6"/>
</svg>
