<svg width="52" height="52" viewBox="0 0 52 52" fill="none" xmlns="http://www.w3.org/2000/svg">
<g clip-path="url(#clip0_5710_62759)">
<path d="M15.8 36.2H36.2V23.0958L28.9042 15.8H15.8V36.2ZM15.8 38.75C15.0917 38.75 14.4896 38.5021 13.9938 38.0062C13.4979 37.5104 13.25 36.9083 13.25 36.2V15.8C13.25 15.0917 13.4979 14.4896 13.9938 13.9937C14.4896 13.4979 15.0917 13.25 15.8 13.25H29.9667L38.75 22.0333V36.2C38.75 36.9083 38.5021 37.5104 38.0063 38.0062C37.5104 38.5021 36.9083 38.75 36.2 38.75H15.8ZM18.9167 32.9062H33.0833V30.3917H18.9167V32.9062ZM18.9167 27.275H33.0833V24.725H18.9167V27.275ZM18.9167 21.6083H28.7625V19.0937H18.9167V21.6083ZM15.8 36.2V15.8V23.0958V36.2Z" fill="#3367D6"/>
</g>
<defs>
<clipPath id="clip0_5710_62759">
<rect width="38" height="38" fill="white" transform="translate(7 7)"/>
</clipPath>
</defs>
</svg>
