<svg width="52" height="52" viewBox="0 0 52 52" fill="none" xmlns="http://www.w3.org/2000/svg">
<rect width="52" height="52" fill="white"/>
<path d="M1.95545 27.1482H2.59885C3.20021 27.1482 3.65017 27.0302 3.94874 26.7943C4.24732 26.5541 4.3966 26.2065 4.3966 25.7514C4.3966 25.2921 4.27045 24.9529 4.01813 24.7338C3.77002 24.5147 3.37893 24.4052 2.84486 24.4052H1.95545V27.1482ZM6.37098 25.6819C6.37098 26.6763 6.05979 27.4368 5.43741 27.9635C4.81923 28.4902 3.93823 28.7536 2.7944 28.7536H1.95545V32.0402H0V22.7998H2.94579C4.06439 22.7998 4.91385 23.0421 5.49418 23.5266C6.07871 24.007 6.37098 24.7254 6.37098 25.6819Z" fill="#E25A1C"/>
<path d="M6.9513 24.974H9.05814L10.3891 28.9495C10.5026 29.295 10.5804 29.7038 10.6225 30.1757H10.6603C10.7066 29.7417 10.797 29.333 10.9316 28.9495L12.2373 24.974H14.3L11.3164 32.944C11.043 33.6814 10.6519 34.2334 10.1431 34.5999C9.63846 34.9665 9.04763 35.1498 8.37058 35.1498C8.03836 35.1498 7.71245 35.114 7.39285 35.0424V33.5128C7.62414 33.5676 7.87646 33.595 8.1498 33.595C8.49043 33.595 8.7869 33.4897 9.03922 33.279C9.29574 33.0725 9.49549 32.7586 9.63846 32.3372L9.75201 31.9896L6.9513 24.974Z" fill="#E25A1C"/>
<g clip-path="url(#clip0_3526_17591)">
<path fill-rule="evenodd" clip-rule="evenodd" d="M48.5824 24.9978C48.5487 24.9273 48.5336 24.8918 48.5154 24.858C48.028 23.9502 47.5419 23.0424 47.0495 22.1346C47.0002 22.0436 47.0064 21.9899 47.074 21.9114C47.8495 21.0245 48.615 20.1326 49.3918 19.2494C49.4193 19.2182 49.4437 19.1852 49.454 19.1297C49.2284 19.1872 49.0029 19.2441 48.7761 19.3026C47.8402 19.5455 46.8968 19.7872 45.9696 20.0338C45.8826 20.0567 45.8431 20.0318 45.7993 19.9609C45.268 19.0911 44.733 18.2189 44.1955 17.3602C44.1681 17.3152 44.1382 17.2715 44.0795 17.2339C44.0364 17.4657 43.9928 17.6964 43.9505 17.9282C43.8014 18.7464 43.6523 19.5598 43.5044 20.3817C43.4883 20.4699 43.4662 20.5583 43.4585 20.6466C43.4511 20.731 43.4066 20.7622 43.3282 20.7865C42.2244 21.1263 41.1231 21.4685 40.0205 21.8108C39.9721 21.8256 39.9247 21.8453 39.8727 21.8913C40.7748 22.2421 41.6768 22.593 42.5915 22.9499C42.5581 22.9758 42.5361 22.9959 42.5116 23.0113C41.9478 23.3682 41.3828 23.7252 40.8202 24.0834C40.7527 24.1266 40.6993 24.1327 40.6235 24.0992C39.9495 23.8024 39.2704 23.5104 38.5938 23.216C38.2906 23.0835 38.0188 22.9081 37.807 22.6529C37.3272 22.0788 37.4224 21.4262 38.0614 21.0214C38.2706 20.8901 38.5086 20.7932 38.7454 20.7172C39.8267 20.3725 40.9129 20.04 41.9904 19.7063C42.0814 19.678 42.1232 19.6383 42.1408 19.542C42.2861 18.7225 42.4352 17.8982 42.5868 17.0885C42.6675 16.6506 42.7101 16.2028 42.9276 15.8005C43.0109 15.6459 43.1105 15.495 43.2308 15.3662C43.6618 14.8976 44.2619 14.8804 44.7218 15.326C44.8759 15.4768 45.0074 15.6535 45.1214 15.8363C45.6226 16.6373 46.1162 17.4433 46.6124 18.2529C46.6706 18.3482 46.723 18.3674 46.8304 18.3397C48.0394 18.0219 49.2485 17.7091 50.4638 17.3963C50.7144 17.3317 50.9662 17.3082 51.2231 17.3552C51.7806 17.4573 52.0249 17.8729 51.8357 18.4016C51.7501 18.642 51.6014 18.8444 51.4348 19.037C50.5903 20.0098 49.7434 20.9875 48.9039 21.9566C48.8349 22.0361 48.8335 22.0928 48.8814 22.1824C49.3876 23.1159 49.8887 24.047 50.3974 24.9916C50.5178 25.2148 50.6104 25.4479 50.6129 25.7043C50.6188 26.2882 50.1819 26.7666 49.5893 26.8525C49.2573 26.9 48.949 26.8305 48.6371 26.7366C47.8791 26.5072 47.1211 26.2815 46.3568 26.057C46.2863 26.0364 46.2593 26.009 46.2467 25.9348C46.1595 25.411 46.0637 24.8884 45.971 24.3646C45.9686 24.3502 45.973 24.3349 45.9755 24.3028C46.8413 24.5371 47.7045 24.7677 48.5941 25.0094" fill="#E25A1C"/>
<path fill-rule="evenodd" clip-rule="evenodd" d="M47.0789 32.6646C46.3948 32.6636 45.7133 32.6603 45.0242 32.6632C44.9336 32.6632 44.8826 32.6378 44.8325 32.5625C44.0231 31.3554 43.2037 30.1459 42.4019 28.9437C42.3759 28.9054 42.3485 28.8685 42.3025 28.8038C42.1283 30.1042 41.9567 31.38 41.7851 32.6558H39.9934C40.0145 32.4852 40.0331 32.3196 40.0552 32.1552C40.2293 30.8427 40.406 29.5423 40.5814 28.2297C40.7493 26.9785 40.9159 25.7272 41.0863 24.476C41.0912 24.439 41.1166 24.3916 41.1475 24.3719C41.7639 23.9781 42.3828 23.588 43.0017 23.198C43.0106 23.1922 43.0233 23.1917 43.0551 23.1826C42.8684 24.5811 42.683 25.9673 42.4963 27.3535C42.5037 27.3583 42.511 27.3635 42.5184 27.3683C43.4894 26.3158 44.4604 25.2584 45.4502 24.1911C45.4786 24.353 45.5035 24.4917 45.528 24.6303C45.5975 25.0265 45.6645 25.4252 45.7384 25.8214C45.7536 25.9014 45.7316 25.9502 45.6773 26.0067C45.0496 26.6495 44.4244 27.2947 43.798 27.9449C43.7705 27.9732 43.7446 28.0024 43.7133 28.036C43.7333 28.0671 43.7505 28.0974 43.7705 28.1251C44.8493 29.6094 45.9255 31.0938 47.003 32.5781C47.0225 32.605 47.0509 32.6261 47.0749 32.65V32.6734" fill="#3C3A3E"/>
<path fill-rule="evenodd" clip-rule="evenodd" d="M25.905 28.7394C25.8776 28.6032 25.858 28.402 25.7959 28.2143C25.4952 27.3078 24.5468 26.8159 23.5657 27.0355C22.487 27.2808 21.7114 28.1113 21.6112 29.1945C21.5285 29.9919 21.967 30.7647 22.7814 31.0469C23.4379 31.2787 24.0719 31.1818 24.6608 30.8371C25.4388 30.3807 25.8598 29.7024 25.9137 28.7394H25.905ZM21.1691 32.1129C21.1162 32.503 21.0653 32.8698 21.0162 33.2378C20.9507 33.726 20.8847 34.2155 20.822 34.7099C20.8148 34.7669 20.7971 34.7923 20.7344 34.7918C20.2421 34.79 19.7497 34.7905 19.256 34.7895C19.2447 34.7895 19.2335 34.7837 19.207 34.7761C19.2369 34.5455 19.2658 34.3136 19.2966 34.083C19.4052 33.2734 19.5134 32.4637 19.6236 31.6541C19.7502 30.7267 19.8491 29.8017 20.0108 28.8817C20.2964 27.2501 21.7147 25.8517 23.3685 25.4959C24.3295 25.2923 25.2479 25.3866 26.0873 25.9167C26.9243 26.4442 27.4029 27.217 27.5156 28.1739C27.671 29.5355 27.1586 30.6641 26.175 31.6087C25.526 32.2233 24.7467 32.6134 23.8572 32.7459C22.9338 32.882 22.0655 32.7315 21.2887 32.1987C21.2603 32.1791 21.2295 32.1619 21.1806 32.1318" fill="#3C3A3E"/>
<path fill-rule="evenodd" clip-rule="evenodd" d="M20.3421 24.3846C19.7908 24.787 19.2583 25.1746 18.7259 25.5635C18.6398 25.431 18.563 25.2985 18.4728 25.1747C18.241 24.8569 17.9528 24.6202 17.5344 24.592C17.1861 24.5679 16.8879 24.68 16.6511 24.9318C16.4393 25.1562 16.4118 25.4764 16.6095 25.7304C16.8275 26.01 17.0655 26.275 17.3098 26.5339C17.7145 26.9632 18.1368 27.3754 18.5377 27.8097C18.9023 28.2022 19.1942 28.6414 19.2844 29.1836C19.3917 29.8215 19.2615 30.4226 18.9536 30.9869C18.3836 32.0235 17.4878 32.6307 16.2975 32.8147C15.7738 32.8975 15.2526 32.8813 14.7439 32.7341C14.0661 32.539 13.5937 32.1036 13.2905 31.4951C13.1834 31.278 13.1014 31.0486 13.0049 30.8155C13.5975 30.5051 14.1751 30.2021 14.7589 29.8967C14.779 29.9442 14.7936 29.9839 14.8123 30.0218C14.9122 30.2169 14.994 30.4242 15.1168 30.6045C15.4839 31.1381 16.0752 31.3001 16.6704 31.0363C16.8245 30.9682 16.9736 30.8732 17.1001 30.7627C17.486 30.4266 17.5587 29.958 17.273 29.536C17.1089 29.2931 16.9034 29.0748 16.7029 28.8576C16.2243 28.3375 15.7257 27.8333 15.2621 27.2997C14.9401 26.9341 14.7209 26.5097 14.6507 26.0239C14.5749 25.4891 14.684 24.9861 14.9677 24.5396C15.6731 23.422 16.6967 22.8467 18.0498 22.8835C18.8228 22.9109 19.4405 23.265 19.9166 23.8538C20.0582 24.028 20.191 24.2084 20.3351 24.3973" fill="#3C3A3E"/>
<path fill-rule="evenodd" clip-rule="evenodd" d="M33.4224 30.3339C33.3323 31.0074 33.247 31.6465 33.1593 32.2844C33.1544 32.317 33.1285 32.3611 33.1005 32.3736C31.7599 32.9796 30.0059 32.8949 28.9159 31.6756C28.327 31.0205 28.0802 30.2403 28.1165 29.3816C28.2021 27.382 29.8956 25.6278 31.9253 25.3825C33.1093 25.2402 34.143 25.553 34.9448 26.4546C35.4911 27.068 35.7442 27.804 35.7066 28.6137C35.6821 29.1485 35.5964 29.6797 35.5287 30.2084C35.4322 30.9616 35.327 31.7173 35.2255 32.4656C35.2216 32.4918 35.2162 32.5187 35.2098 32.5528H33.6186C33.6397 32.3798 33.6592 32.2106 33.6818 32.0413C33.7973 31.1715 33.9248 30.2993 34.0263 29.4283C34.0895 28.8861 34.0497 28.3476 33.7958 27.8459C33.5264 27.3122 33.0754 27.0289 32.4802 26.9675C31.2499 26.84 30.0747 27.6766 29.8241 28.8567C29.6512 29.6393 29.924 30.3901 30.5608 30.8072C31.181 31.2108 31.8388 31.212 32.5153 30.9507C32.8586 30.8182 33.1493 30.6072 33.4274 30.3239" fill="#3C3A3E"/>
<path fill-rule="evenodd" clip-rule="evenodd" d="M40.1881 25.5866C40.1152 26.1288 40.0428 26.6625 39.9701 27.2059C39.6318 27.2059 39.301 27.2041 38.9703 27.2064C38.7022 27.2083 38.4578 27.3781 38.3764 27.6235C38.3451 27.7193 38.3334 27.8222 38.3196 27.9228C38.1518 29.1741 37.9851 30.413 37.8185 31.652C37.7764 31.9661 37.7358 32.2801 37.6937 32.5991H36.0273C36.0582 32.3599 36.0875 32.128 36.1183 31.8962C36.2264 31.089 36.3351 30.2769 36.4441 29.4795C36.5385 28.7815 36.6232 28.081 36.7347 27.3818C36.8838 26.4495 37.831 25.6153 38.7895 25.5785C39.248 25.5589 39.7079 25.5752 40.1802 25.5752" fill="#3C3A3E"/>
<path d="M49.0837 32.6649V31.978H49.0798L48.8041 32.6649H48.7166L48.4409 31.978H48.4365V32.6649H48.2987V31.8418H48.513L48.7635 32.4674L49.0104 31.8418H49.2234V32.6649H49.0837ZM47.8633 31.9522V32.6649H47.7255V31.9522H47.4624V31.8419H48.1277V31.9522H47.8646" fill="#3C3A3E"/>
<path d="M22.5598 23.2315H22.972L22.8745 22.6206L22.5598 23.2315ZM23.0372 23.6265H22.3518L22.1338 24.0448H21.6477L22.7189 22.082H23.1875L23.5521 24.0448H23.1023L23.0377 23.6265" fill="#3C3A3E"/>
<path d="M25.4916 22.4832H25.2473L25.1651 22.9358H25.4094C25.5573 22.9358 25.6738 22.841 25.6738 22.6623C25.6738 22.5439 25.6004 22.4832 25.4909 22.4832H25.4916ZM24.9003 22.0882H25.5417C25.8775 22.0882 26.1118 22.2844 26.1118 22.6206C26.1118 23.045 25.8061 23.3296 25.3701 23.3296H25.0932L24.9629 24.0472H24.5444L24.8978 22.0845" fill="#3C3A3E"/>
<path d="M27.5337 23.2315H27.9459L27.8486 22.6206L27.5337 23.2315ZM28.0098 23.6265H27.3245L27.1065 24.0448H26.6204L27.6916 22.082H28.1602L28.5248 24.0448H28.075L28.0103 23.6265" fill="#3C3A3E"/>
<path d="M30.6659 23.9794C30.5243 24.0427 30.3689 24.0805 30.2123 24.0805C29.6824 24.0805 29.3503 23.6916 29.3503 23.2046C29.3503 22.5814 29.8853 22.0576 30.5218 22.0576C30.6809 22.0576 30.825 22.095 30.9428 22.1582L30.884 22.628C30.7959 22.5327 30.6535 22.4661 30.4781 22.4661C30.1135 22.4661 29.789 22.7887 29.789 23.1629C29.789 23.4475 29.9719 23.6708 30.2601 23.6708C30.4367 23.6708 30.6071 23.6041 30.7224 23.5125L30.6666 23.9787" fill="#3C3A3E"/>
<path d="M33.297 23.256H32.4262L32.2846 24.0448H31.8674L32.2208 22.082H32.6392L32.4989 22.8573H33.3697L33.5112 22.082H33.9297L33.5764 24.0448H33.1579L33.2982 23.256" fill="#3C3A3E"/>
<path d="M34.8005 24.0409L35.1539 22.0781H36.2639L36.1934 22.4731H35.5018L35.4312 22.8534H36.0665L35.9959 23.2484H35.3607L35.2902 23.6434H35.9818L35.9112 24.0384H34.8012" fill="#3C3A3E"/>
</g>
<defs>
<clipPath id="clip0_3526_17591">
<rect width="39" height="19.8305" fill="white" transform="translate(13 15)"/>
</clipPath>
</defs>
</svg>
