<svg width="18" height="18" viewBox="0 0 18 18" fill="none" xmlns="http://www.w3.org/2000/svg">
<g clip-path="url(#clip0_1227_2377)">
<path d="M8.12917 16.9521C6.3875 16.7229 4.93611 15.959 3.775 14.6604C2.61389 13.3465 2.03333 11.8035 2.03333 10.0312C2.03333 9.05347 2.21667 8.1368 2.58333 7.28125C2.96528 6.41042 3.49236 5.65417 4.16458 5.0125L5.40208 6.25C4.88264 6.73889 4.47778 7.31181 4.1875 7.96875C3.9125 8.61042 3.775 9.29792 3.775 10.0312C3.775 11.3146 4.1875 12.4451 5.0125 13.4229C5.8375 14.3854 6.87639 14.9736 8.12917 15.1875V16.9521ZM9.87083 16.9521V15.1875C11.1236 14.9736 12.1625 14.3854 12.9875 13.4229C13.8125 12.4451 14.225 11.3146 14.225 10.0312C14.225 8.57986 13.7132 7.35 12.6896 6.34167C11.6813 5.31806 10.4514 4.80625 9 4.80625H8.88542L9.91667 5.8375L8.70208 7.05208L5.58542 3.93542L8.70208 0.818749L9.91667 2.03333L8.90833 3.06458H9C10.9403 3.06458 12.5826 3.74444 13.9271 5.10417C15.2868 6.44861 15.9667 8.09097 15.9667 10.0312C15.9667 11.8035 15.3861 13.3465 14.225 14.6604C13.0639 15.959 11.6125 16.7229 9.87083 16.9521Z" fill="#8A8A8A"/>
</g>
<defs>
<clipPath id="clip0_1227_2377">
<rect width="18" height="18" fill="white"/>
</clipPath>
</defs>
</svg>
