<svg width="52" height="52" viewBox="0 0 52 52" fill="none" xmlns="http://www.w3.org/2000/svg">
<g clip-path="url(#clip0_2788_15538)">
<rect width="52" height="52" fill="white"/>
<g clip-path="url(#clip1_2788_15538)">
<path fill-rule="evenodd" clip-rule="evenodd" d="M47.4431 38.6123C47.3982 38.5163 47.3779 38.468 47.3537 38.4219C46.7039 37.186 46.0557 35.95 45.3992 34.714C45.3334 34.5901 45.3417 34.5169 45.4318 34.41C46.4658 33.2025 47.4865 31.9882 48.5223 30.7856C48.5588 30.7432 48.5914 30.6983 48.6051 30.6226C48.3044 30.7009 48.0037 30.7784 47.7014 30.8581C46.4535 31.1888 45.1956 31.5179 43.9594 31.8536C43.8433 31.8848 43.7906 31.8509 43.7322 31.7544C43.0239 30.5702 42.3106 29.3826 41.5939 28.2135C41.5573 28.1522 41.5174 28.0927 41.4392 28.0414C41.3817 28.3571 41.3236 28.6711 41.2671 28.9868C41.0683 30.1008 40.8696 31.2082 40.6724 32.3272C40.6509 32.4473 40.6215 32.5678 40.6111 32.688C40.6013 32.8029 40.542 32.8454 40.4374 32.8784C38.9656 33.3411 37.4972 33.8071 36.0272 34.2731C35.9627 34.2933 35.8994 34.32 35.8301 34.3826C37.0328 34.8603 38.2356 35.338 39.4551 35.824C39.4107 35.8593 39.3813 35.8867 39.3487 35.9076C38.597 36.3936 37.8436 36.8796 37.0935 37.3673C37.0034 37.4261 36.9323 37.4345 36.8312 37.3889C35.9325 36.9847 35.027 36.5872 34.1249 36.1863C33.7207 36.0059 33.3582 35.7671 33.0759 35.4197C32.436 34.638 32.563 33.7495 33.415 33.1983C33.694 33.0196 34.0114 32.8876 34.3271 32.7841C35.7688 32.3147 37.2171 31.8621 38.6538 31.4078C38.775 31.3692 38.8308 31.3151 38.8542 31.184C39.048 30.0683 39.2468 28.9459 39.4489 27.8435C39.5565 27.2472 39.6133 26.6376 39.9033 26.0898C40.0144 25.8793 40.1472 25.6739 40.3076 25.4985C40.8822 24.8605 41.6824 24.8371 42.2955 25.4437C42.501 25.6492 42.6764 25.8897 42.8284 26.1385C43.4966 27.2292 44.1548 28.3265 44.8163 29.4289C44.894 29.5587 44.9639 29.5847 45.107 29.547C46.7191 29.1144 48.3311 28.6885 49.9516 28.2626C50.2857 28.1746 50.6214 28.1426 50.9639 28.2066C51.7073 28.3456 52.033 28.9115 51.7808 29.6313C51.6667 29.9587 51.4684 30.2343 51.2462 30.4965C50.1203 31.821 48.991 33.1522 47.8718 34.4717C47.7797 34.5799 47.7779 34.6571 47.8417 34.779C48.5166 36.05 49.1848 37.3177 49.863 38.6038C50.0236 38.9078 50.147 39.2251 50.1504 39.5742C50.1582 40.3693 49.5757 41.0206 48.7855 41.1376C48.3428 41.2022 47.9319 41.1077 47.5159 40.9797C46.5053 40.6674 45.4946 40.3601 44.4756 40.0544C44.3815 40.0264 44.3456 39.9891 44.3287 39.8881C44.2125 39.1749 44.0848 38.4633 43.9612 37.7502C43.958 37.7306 43.9639 37.7097 43.9672 37.666C45.1216 37.985 46.2725 38.299 47.4586 38.628" fill="#E25A1C"/>
<path fill-rule="evenodd" clip-rule="evenodd" d="M45.4386 49.0512C44.5265 49.0498 43.6177 49.0453 42.6989 49.0493C42.5781 49.0493 42.5101 49.0148 42.4433 48.9122C41.3641 47.2687 40.2716 45.6219 39.2025 43.985C39.1679 43.9329 39.1313 43.8826 39.07 43.7946C38.8378 45.5651 38.6089 47.3021 38.3801 49.0391H35.9912C36.0193 48.807 36.0442 48.5815 36.0736 48.3577C36.3058 46.5705 36.5413 44.8001 36.7752 43.013C36.999 41.3093 37.2212 39.6057 37.4484 37.902C37.4549 37.8518 37.4888 37.7871 37.5299 37.7604C38.3518 37.2243 39.1771 36.6931 40.0023 36.162C40.0142 36.1541 40.0311 36.1535 40.0735 36.1411C39.8246 38.0452 39.5773 39.9325 39.3284 41.8199C39.3383 41.8264 39.348 41.8336 39.3578 41.8401C40.6525 40.4071 41.9472 38.9673 43.2669 37.5142C43.3048 37.7347 43.338 37.9234 43.3706 38.1122C43.4633 38.6516 43.5527 39.1945 43.6513 39.734C43.6715 39.8428 43.6421 39.9093 43.5697 39.9862C42.7328 40.8614 41.8992 41.7399 41.0639 42.6251C41.0274 42.6637 40.9928 42.7035 40.951 42.7492C40.9777 42.7915 41.0006 42.8327 41.0274 42.8705C42.4657 44.8915 43.9007 46.9124 45.3373 48.9334C45.3634 48.97 45.4011 48.9987 45.4332 49.0313V49.0632" fill="#3C3A3E"/>
<path fill-rule="evenodd" clip-rule="evenodd" d="M17.2065 43.7063C17.17 43.5209 17.1439 43.247 17.061 42.9914C16.6601 41.7571 15.3955 41.0874 14.0875 41.3863C12.6492 41.7204 11.6151 42.8511 11.4815 44.3259C11.3712 45.4116 11.9559 46.4638 13.0417 46.848C13.9171 47.1637 14.7624 47.0317 15.5475 46.5624C16.5849 45.941 17.1462 45.0174 17.2181 43.7063H17.2065ZM10.8919 48.2994C10.8214 48.8305 10.7536 49.3299 10.6881 49.831C10.6008 50.4958 10.5127 51.1622 10.4292 51.8353C10.4195 51.913 10.3959 51.9475 10.3124 51.9469C9.6559 51.9444 8.99939 51.945 8.3412 51.9437C8.32616 51.9437 8.31113 51.9358 8.27588 51.9255C8.31564 51.6115 8.35423 51.2958 8.39532 50.9818C8.54016 49.8795 8.68432 48.7771 8.83133 47.6747C9.00005 46.4121 9.13203 45.1527 9.34752 43.9C9.72841 41.6786 11.6194 39.7745 13.8245 39.2902C15.1058 39.0129 16.3303 39.1414 17.4496 39.8631C18.5655 40.5813 19.2037 41.6335 19.354 42.9363C19.5612 44.7903 18.8779 46.3269 17.5665 47.6129C16.7012 48.4497 15.6621 48.9809 14.4761 49.1613C13.2449 49.3467 12.0872 49.1417 11.0515 48.4163C11.0135 48.3896 10.9725 48.3662 10.9073 48.3251" fill="#3C3A3E"/>
<path fill-rule="evenodd" clip-rule="evenodd" d="M9.78931 37.7771C9.05428 38.3249 8.3443 38.8527 7.63433 39.3822C7.51956 39.2018 7.41716 39.0214 7.29688 38.8527C6.98783 38.4201 6.60361 38.0978 6.04565 38.0594C5.58124 38.0266 5.18366 38.1793 4.86793 38.522C4.58561 38.8277 4.54886 39.2636 4.81247 39.6093C5.10314 39.9901 5.42054 40.3509 5.74629 40.7033C6.28587 41.2879 6.84884 41.8491 7.38341 42.4404C7.86954 42.9748 8.25877 43.5728 8.37905 44.311C8.52205 45.1796 8.34848 45.998 7.93803 46.7663C7.17794 48.1776 5.98351 49.0044 4.3965 49.2549C3.69822 49.3677 3.00328 49.3456 2.32505 49.1452C1.42129 48.8796 0.791497 48.2867 0.387229 47.4583C0.244398 47.1626 0.134979 46.8503 0.00634766 46.5329C0.796509 46.1104 1.56662 45.6978 2.34509 45.2819C2.37182 45.3466 2.39137 45.4007 2.41626 45.4523C2.5494 45.7179 2.65848 46.0001 2.8222 46.2457C3.31166 46.9722 4.10015 47.1927 4.89365 46.8336C5.09913 46.7409 5.29792 46.6114 5.46665 46.4611C5.98117 46.0035 6.07806 45.3654 5.69718 44.7909C5.47834 44.4602 5.20437 44.1629 4.93709 43.8673C4.29894 43.1591 3.63407 42.4726 3.01598 41.7461C2.58665 41.2483 2.29431 40.6704 2.20076 40.009C2.09969 39.2808 2.24519 38.596 2.6234 37.988C3.56391 36.4665 4.92874 35.6831 6.73291 35.7332C7.76363 35.7705 8.5872 36.2527 9.222 37.0544C9.41077 37.2915 9.58785 37.5371 9.77996 37.7943" fill="#3C3A3E"/>
<path fill-rule="evenodd" clip-rule="evenodd" d="M27.2296 45.8776C27.1095 46.7946 26.9957 47.6648 26.8788 48.5333C26.8722 48.5777 26.8377 48.6377 26.8004 48.6547C25.0129 49.4798 22.6742 49.3646 21.2208 47.7044C20.4357 46.8125 20.1066 45.7502 20.155 44.581C20.2691 41.8585 22.5272 39.4701 25.2334 39.1361C26.8121 38.9423 28.1903 39.3682 29.2594 40.5959C29.9878 41.431 30.3252 42.4331 30.2751 43.5355C30.2425 44.2637 30.1283 44.9869 30.0379 45.7068C29.9093 46.7323 29.7689 47.7611 29.6336 48.78C29.6285 48.8157 29.6213 48.8523 29.6127 48.8987H27.4912C27.5192 48.6632 27.5453 48.4327 27.5754 48.2023C27.7294 47.0181 27.8995 45.8305 28.0348 44.6447C28.119 43.9064 28.066 43.1732 27.7274 42.4901C27.3682 41.7635 26.7668 41.3777 25.9733 41.2942C24.3329 41.1205 22.7659 42.2596 22.4318 43.8663C22.2013 44.9319 22.5649 45.9541 23.4141 46.522C24.241 47.0715 25.118 47.0732 26.0201 46.7174C26.4778 46.537 26.8654 46.2498 27.2362 45.8639" fill="#3C3A3E"/>
<path fill-rule="evenodd" clip-rule="evenodd" d="M36.2505 39.4138C36.1533 40.1521 36.0568 40.8786 35.9599 41.6185C35.5088 41.6185 35.0678 41.616 34.6268 41.6192C34.2693 41.6219 33.9435 41.853 33.835 42.1871C33.7932 42.3175 33.7777 42.4577 33.7593 42.5946C33.5354 44.2983 33.3133 45.9852 33.0911 47.6721C33.0349 48.0997 32.9808 48.5273 32.9247 48.9616H30.7029C30.744 48.6359 30.7831 48.3202 30.8242 48.0045C30.9683 46.9055 31.1132 45.7998 31.2585 44.7142C31.3845 43.7638 31.4974 42.8101 31.6461 41.8581C31.8449 40.5887 33.1078 39.4529 34.3857 39.4028C34.9971 39.3761 35.6102 39.3983 36.24 39.3983" fill="#3C3A3E"/>
<path d="M48.1114 49.0514V48.1161H48.1062L47.7387 49.0514H47.6219L47.2544 48.1161H47.2485V49.0514H47.0648V47.9307H47.3504L47.6846 48.7825L48.0137 47.9307H48.2976V49.0514H48.1114ZM46.4843 48.081V49.0514H46.3005V48.081H45.9497V47.9308H46.8368V48.081H46.4859" fill="#3C3A3E"/>
<path d="M12.7462 36.2071H13.2958L13.1658 35.3753L12.7462 36.2071ZM13.3826 36.7449H12.4689L12.1782 37.3145H11.53L12.9583 34.6421H13.5831L14.0692 37.3145H13.4695L13.3833 36.7449" fill="#3C3A3E"/>
<path d="M16.6553 35.1883H16.3295L16.2199 35.8046H16.5457C16.7428 35.8046 16.8982 35.6755 16.8982 35.4322C16.8982 35.271 16.8003 35.1883 16.6543 35.1883H16.6553ZM15.8668 34.6505H16.7221C17.1698 34.6505 17.4822 34.9178 17.4822 35.3754C17.4822 35.9533 17.0746 36.3408 16.4932 36.3408H16.124L15.9503 37.3179H15.3923L15.8634 34.6455" fill="#3C3A3E"/>
<path d="M19.3782 36.2071H19.9278L19.798 35.3753L19.3782 36.2071ZM20.013 36.7449H19.0992L18.8086 37.3145H18.1604L19.5887 34.6421H20.2135L20.6996 37.3145H20.0999L20.0137 36.7449" fill="#3C3A3E"/>
<path d="M23.5546 37.226C23.3658 37.3121 23.1587 37.3636 22.9499 37.3636C22.2432 37.3636 21.8005 36.8341 21.8005 36.171C21.8005 35.3226 22.5139 34.6094 23.3625 34.6094C23.5746 34.6094 23.7668 34.6603 23.9238 34.7463L23.8454 35.386C23.728 35.2563 23.5381 35.1656 23.3042 35.1656C22.8181 35.1656 22.3854 35.6048 22.3854 36.1143C22.3854 36.5017 22.6293 36.8057 23.0135 36.8057C23.2491 36.8057 23.4762 36.715 23.6299 36.5903L23.5556 37.225" fill="#3C3A3E"/>
<path d="M27.0626 36.2405H25.9016L25.7128 37.3145H25.1565L25.6276 34.6421H26.1855L25.9984 35.6977H27.1595L27.3482 34.6421H27.9062L27.4351 37.3145H26.8771L27.0642 36.2405" fill="#3C3A3E"/>
<path d="M29.0671 37.3096L29.5382 34.6372H31.0183L30.9243 35.175H30.0021L29.9081 35.6928H30.755L30.661 36.2306H29.814L29.72 36.7684H30.6421L30.5481 37.3062H29.068" fill="#3C3A3E"/>
</g>
<rect x="-26" y="-3" width="107" height="21" fill="#F4F6FB"/>
<path d="M19.5541 10.6707C19.5541 11.428 19.2806 12.0247 18.7336 12.4607C18.1905 12.8967 17.4332 13.1147 16.4617 13.1147C15.5667 13.1147 14.7749 12.9465 14.0864 12.6099V10.9575C14.6525 11.21 15.1306 11.3878 15.5208 11.4911C15.9147 11.5944 16.2743 11.646 16.5994 11.646C16.9895 11.646 17.2878 11.5714 17.4944 11.4222C17.7048 11.2731 17.8099 11.0512 17.8099 10.7567C17.8099 10.5922 17.764 10.4469 17.6722 10.3207C17.5804 10.1906 17.4447 10.0663 17.2649 9.94775C17.0889 9.82918 16.7275 9.63985 16.1805 9.37976C15.668 9.13879 15.2836 8.90739 15.0273 8.68555C14.7711 8.4637 14.5664 8.20553 14.4135 7.91101C14.2605 7.6165 14.184 7.27226 14.184 6.8783C14.184 6.13627 14.4345 5.55298 14.9355 5.12842C15.4404 4.70386 16.1366 4.49158 17.0239 4.49158C17.46 4.49158 17.875 4.54321 18.2689 4.64648C18.6667 4.74976 19.0817 4.8951 19.5139 5.08252L18.9402 6.46521C18.4927 6.28162 18.1217 6.15348 17.8271 6.08081C17.5365 6.00814 17.2496 5.9718 16.9666 5.9718C16.63 5.9718 16.3718 6.05021 16.192 6.20703C16.0122 6.36385 15.9224 6.56848 15.9224 6.82092C15.9224 6.97774 15.9587 7.11544 16.0314 7.23401C16.104 7.34875 16.2188 7.46159 16.3756 7.57251C16.5363 7.67961 16.913 7.87467 17.5059 8.15771C18.29 8.53255 18.8274 8.9093 19.118 9.28796C19.4087 9.6628 19.5541 10.1237 19.5541 10.6707Z" fill="black"/>
<path d="M23.189 13.1147C21.1924 13.1147 20.1941 12.0189 20.1941 9.82727C20.1941 8.73718 20.4657 7.90527 21.0088 7.33154C21.552 6.75399 22.3303 6.46521 23.3439 6.46521C24.0859 6.46521 24.7515 6.61055 25.3405 6.90125L24.8241 8.25525C24.5487 8.14433 24.2925 8.05444 24.0553 7.9856C23.8182 7.91292 23.5811 7.87659 23.3439 7.87659C22.4336 7.87659 21.9784 8.52299 21.9784 9.8158C21.9784 11.0704 22.4336 11.6976 23.3439 11.6976C23.6805 11.6976 23.9922 11.6536 24.2791 11.5657C24.566 11.4739 24.8528 11.3324 25.1397 11.1411V12.6385C24.8566 12.8183 24.5698 12.9426 24.2791 13.0115C23.9922 13.0803 23.6289 13.1147 23.189 13.1147Z" fill="black"/>
<path d="M30.3524 13L30.0139 12.1279H29.968C29.6735 12.4989 29.3694 12.7571 29.0557 12.9025C28.7459 13.044 28.3405 13.1147 27.8394 13.1147C27.2236 13.1147 26.7379 12.9388 26.3822 12.5869C26.0303 12.235 25.8543 11.734 25.8543 11.0837C25.8543 10.4029 26.0915 9.90186 26.5658 9.58057C27.0439 9.25545 27.7629 9.07568 28.723 9.04126L29.836 9.00684V8.72571C29.836 8.07548 29.5033 7.75037 28.8377 7.75037C28.3252 7.75037 27.7228 7.90527 27.0305 8.21509L26.451 7.0332C27.1892 6.64689 28.0077 6.45374 28.9066 6.45374C29.7672 6.45374 30.427 6.64115 30.8859 7.01599C31.3449 7.39083 31.5744 7.96073 31.5744 8.72571V13H30.3524ZM29.836 10.0281L29.159 10.051C28.6503 10.0663 28.2716 10.1581 28.023 10.3264C27.7744 10.4947 27.6501 10.751 27.6501 11.0952C27.6501 11.5886 27.9331 11.8353 28.4992 11.8353C28.9047 11.8353 29.2279 11.7187 29.4688 11.4854C29.7136 11.252 29.836 10.9422 29.836 10.5559V10.0281Z" fill="black"/>
<path d="M34.779 13H33.0292V4.07275H34.779V13Z" fill="black"/>
<path d="M40.3417 13L40.0032 12.1279H39.9573C39.6628 12.4989 39.3587 12.7571 39.0451 12.9025C38.7353 13.044 38.3298 13.1147 37.8288 13.1147C37.213 13.1147 36.7272 12.9388 36.3715 12.5869C36.0196 12.235 35.8437 11.734 35.8437 11.0837C35.8437 10.4029 36.0808 9.90186 36.5551 9.58057C37.0332 9.25545 37.7523 9.07568 38.7123 9.04126L39.8254 9.00684V8.72571C39.8254 8.07548 39.4926 7.75037 38.8271 7.75037C38.3145 7.75037 37.7121 7.90527 37.0198 8.21509L36.4403 7.0332C37.1785 6.64689 37.9971 6.45374 38.8959 6.45374C39.7565 6.45374 40.4163 6.64115 40.8753 7.01599C41.3343 7.39083 41.5638 7.96073 41.5638 8.72571V13H40.3417ZM39.8254 10.0281L39.1483 10.051C38.6396 10.0663 38.261 10.1581 38.0124 10.3264C37.7637 10.4947 37.6394 10.751 37.6394 11.0952C37.6394 11.5886 37.9225 11.8353 38.4886 11.8353C38.894 11.8353 39.2172 11.7187 39.4582 11.4854C39.703 11.252 39.8254 10.9422 39.8254 10.5559V10.0281Z" fill="black"/>
<path d="M25.065 25.4977C25.065 26.0682 25.0104 26.5721 24.901 27.0093C24.7948 27.4434 24.6338 27.8093 24.4182 28.107C24.2057 28.4016 23.9415 28.6248 23.6257 28.7767C23.3129 28.9256 22.95 29 22.5371 29C22.1271 29 21.7643 28.924 21.4484 28.7721C21.1326 28.6202 20.8669 28.3969 20.6513 28.1023C20.4357 27.8047 20.2733 27.4372 20.164 27C20.0547 26.5628 20 26.0589 20 25.4884C20 24.7318 20.0957 24.0946 20.287 23.5767C20.4813 23.0589 20.7667 22.6667 21.1433 22.4C21.5228 22.1333 21.9874 22 22.5371 22C23.0897 22 23.5528 22.1318 23.9263 22.3953C24.3028 22.6589 24.5867 23.0512 24.7781 23.5721C24.9694 24.0899 25.065 24.7318 25.065 25.4977ZM21.6489 25.4977C21.6489 25.9597 21.6823 26.3457 21.7491 26.6558C21.8159 26.9659 21.9146 27.1984 22.0451 27.3535C22.1787 27.5054 22.3427 27.5814 22.5371 27.5814C22.7375 27.5814 22.9014 27.507 23.029 27.3581C23.1596 27.2093 23.2552 26.9814 23.3159 26.6744C23.3797 26.3643 23.4116 25.9721 23.4116 25.4977C23.4116 24.7783 23.3387 24.2481 23.193 23.907C23.0502 23.5628 22.8316 23.3907 22.5371 23.3907C22.3427 23.3907 22.1787 23.4698 22.0451 23.6279C21.9146 23.7829 21.8159 24.0171 21.7491 24.3302C21.6823 24.6403 21.6489 25.0295 21.6489 25.4977Z" fill="#3C3A3E"/>
<path d="M31 28.907H29.1507L27.4153 24.6791H27.3789C27.3971 24.9271 27.4108 25.1581 27.4199 25.3721C27.432 25.5829 27.4396 25.7752 27.4427 25.9488C27.4487 26.1194 27.4518 26.2698 27.4518 26.4V28.907H25.9805V22.107H27.8161L29.5424 26.2186H29.5789C29.5667 25.9891 29.5561 25.7752 29.547 25.5767C29.5379 25.3783 29.5303 25.1953 29.5242 25.0279C29.5182 24.8605 29.5151 24.7085 29.5151 24.5721V22.107H31V28.907Z" fill="#3C3A3E"/>
</g>
<defs>
<clipPath id="clip0_2788_15538">
<rect width="52" height="52" fill="white"/>
</clipPath>
<clipPath id="clip1_2788_15538">
<rect width="52" height="27" fill="white" transform="translate(0 25)"/>
</clipPath>
</defs>
</svg>
