<svg width="52" height="52" viewBox="0 0 52 52" fill="none" xmlns="http://www.w3.org/2000/svg">
<g clip-path="url(#clip0_3526_17609)">
<rect width="52" height="52" fill="white"/>
<g clip-path="url(#clip1_3526_17609)">
<path fill-rule="evenodd" clip-rule="evenodd" d="M43.3194 39.9948C43.2831 39.9173 43.2667 39.8783 43.2472 39.8411C42.7223 38.8428 42.1988 37.8445 41.6685 36.8462C41.6154 36.7461 41.6221 36.687 41.6948 36.6007C42.53 35.6253 43.3544 34.6446 44.191 33.6733C44.2205 33.639 44.2469 33.6027 44.2579 33.5416C44.0151 33.6049 43.7722 33.6675 43.528 33.7318C42.5201 33.9989 41.5041 34.2647 40.5056 34.5358C40.4118 34.5611 40.3693 34.5337 40.3221 34.4557C39.75 33.4992 39.1739 32.5401 38.595 31.5958C38.5655 31.5462 38.5332 31.4982 38.4701 31.4568C38.4237 31.7118 38.3767 31.9654 38.3311 32.2204C38.1705 33.1202 38.01 34.0146 37.8508 34.9184C37.8333 35.0154 37.8096 35.1127 37.8012 35.2098C37.7933 35.3026 37.7454 35.3369 37.6609 35.3636C36.4722 35.7373 35.2862 36.1137 34.0988 36.49C34.0467 36.5064 33.9956 36.528 33.9396 36.5785C34.9111 36.9644 35.8826 37.3502 36.8675 37.7428C36.8316 37.7712 36.8079 37.7934 36.7816 37.8102C36.1744 38.2028 35.5659 38.5954 34.9601 38.9893C34.8873 39.0368 34.8299 39.0435 34.7482 39.0067C34.0223 38.6802 33.291 38.3591 32.5624 38.0354C32.2359 37.8897 31.9431 37.6968 31.7151 37.4162C31.1983 36.7848 31.3008 36.0671 31.989 35.6219C32.2143 35.4776 32.4707 35.371 32.7257 35.2874C33.8901 34.9083 35.0599 34.5427 36.2203 34.1758C36.3182 34.1446 36.3633 34.1009 36.3822 33.995C36.5387 33.0939 36.6993 32.1873 36.8625 31.2969C36.9494 30.8153 36.9953 30.3229 37.2295 29.8805C37.3193 29.7105 37.4265 29.5445 37.5561 29.4029C38.0202 28.8876 38.6665 28.8687 39.1617 29.3587C39.3277 29.5246 39.4693 29.7188 39.5921 29.9199C40.1318 30.8008 40.6635 31.6871 41.1978 32.5774C41.2605 32.6823 41.3169 32.7033 41.4325 32.6728C42.7346 32.3234 44.0366 31.9794 45.3454 31.6354C45.6153 31.5643 45.8865 31.5386 46.1631 31.5902C46.7635 31.7025 47.0266 32.1595 46.8229 32.741C46.7307 33.0054 46.5706 33.228 46.3911 33.4397C45.4817 34.5095 44.5696 35.5847 43.6656 36.6504C43.5912 36.7379 43.5898 36.8002 43.6413 36.8987C44.1864 37.9253 44.7261 38.9492 45.2739 39.988C45.4036 40.2335 45.5033 40.4898 45.506 40.7717C45.5123 41.4139 45.0419 41.94 44.4036 42.0344C44.0461 42.0867 43.7142 42.0103 43.3782 41.907C42.5619 41.6547 41.7456 41.4065 40.9225 41.1596C40.8465 41.1369 40.8175 41.1068 40.8039 41.0252C40.71 40.4492 40.6069 39.8745 40.5071 39.2985C40.5045 39.2827 40.5092 39.2658 40.5119 39.2305C41.4443 39.4881 42.3739 39.7418 43.3319 40.0075" fill="#E25A1C"/>
<path fill-rule="evenodd" clip-rule="evenodd" d="M41.7004 48.4264C40.9637 48.4253 40.2297 48.4217 39.4876 48.4249C39.39 48.4249 39.3351 48.397 39.2811 48.3141C38.4095 46.9867 37.5271 45.6565 36.6635 44.3345C36.6356 44.2924 36.6061 44.2518 36.5565 44.1807C36.369 45.6107 36.1841 47.0137 35.9993 48.4167H34.0698C34.0925 48.2292 34.1126 48.047 34.1363 47.8663C34.3239 46.4228 34.5141 44.9928 34.703 43.5494C34.8838 42.1733 35.0633 40.7973 35.2468 39.4213C35.2521 39.3807 35.2794 39.3285 35.3126 39.3069C35.9765 38.8739 36.643 38.4449 37.3096 38.0159C37.3191 38.0095 37.3328 38.009 37.367 37.999C37.166 39.5369 36.9663 41.0613 36.7653 42.5857C36.7732 42.591 36.7811 42.5968 36.789 42.6021C37.8347 41.4446 38.8804 40.2817 39.9463 39.1081C39.977 39.2861 40.0038 39.4386 40.0301 39.591C40.105 40.0268 40.1772 40.4652 40.2568 40.9009C40.2731 40.9889 40.2494 41.0426 40.1909 41.1046C39.515 41.8115 38.8417 42.5211 38.167 43.2361C38.1375 43.2673 38.1096 43.2994 38.0758 43.3363C38.0974 43.3705 38.1159 43.4038 38.1375 43.4343C39.2992 45.0666 40.4582 46.6989 41.6186 48.3313C41.6397 48.3608 41.6702 48.384 41.6961 48.4103V48.4361" fill="#3C3A3E"/>
<path fill-rule="evenodd" clip-rule="evenodd" d="M18.8976 44.1093C18.868 43.9596 18.847 43.7383 18.78 43.5319C18.4562 42.535 17.4348 41.994 16.3783 42.2355C15.2166 42.5053 14.3814 43.4186 14.2735 44.6098C14.1844 45.4867 14.6566 46.3366 15.5337 46.6468C16.2407 46.9018 16.9234 46.7952 17.5576 46.4162C18.3955 45.9143 18.8488 45.1683 18.9069 44.1093H18.8976ZM13.7973 47.8192C13.7404 48.2481 13.6856 48.6515 13.6327 49.0562C13.5621 49.5931 13.491 50.1314 13.4235 50.6751C13.4157 50.7378 13.3967 50.7657 13.3292 50.7652C12.799 50.7632 12.2687 50.7637 11.7371 50.7626C11.7249 50.7626 11.7128 50.7563 11.6843 50.7479C11.7164 50.4943 11.7476 50.2393 11.7808 49.9857C11.8978 49.0953 12.0142 48.205 12.133 47.3146C12.2692 46.2947 12.3758 45.2776 12.5499 44.2658C12.8575 42.4716 14.3849 40.9337 16.1659 40.5425C17.2008 40.3185 18.1899 40.4223 19.0939 41.0052C19.9952 41.5853 20.5106 42.4352 20.632 43.4874C20.7994 44.9848 20.2475 46.2259 19.1883 47.2647C18.4894 47.9406 17.6501 48.3696 16.6922 48.5153C15.6977 48.665 14.7627 48.4995 13.9261 47.9136C13.8955 47.892 13.8623 47.8731 13.8097 47.8399" fill="#3C3A3E"/>
<path fill-rule="evenodd" clip-rule="evenodd" d="M12.9068 39.3201C12.3131 39.7626 11.7396 40.1889 11.1662 40.6165C11.0735 40.4708 10.9908 40.3252 10.8936 40.1889C10.644 39.8395 10.3337 39.5791 9.88303 39.5481C9.50793 39.5217 9.1868 39.645 8.93179 39.9218C8.70376 40.1687 8.67408 40.5208 8.88699 40.8C9.12177 41.1076 9.37813 41.399 9.64124 41.6836C10.0771 42.1558 10.5318 42.6091 10.9635 43.0866C11.3562 43.5183 11.6705 44.0013 11.7677 44.5975C11.8832 45.299 11.743 45.9601 11.4115 46.5806C10.7976 47.7206 9.83283 48.3883 8.55102 48.5907C7.98702 48.6817 7.42573 48.6639 6.87792 48.502C6.14796 48.2876 5.63929 47.8086 5.31276 47.1395C5.1974 46.9007 5.10902 46.6485 5.00513 46.3922C5.64333 46.0509 6.26535 45.7176 6.89411 45.3817C6.9157 45.4339 6.93149 45.4777 6.95159 45.5193C7.05913 45.7338 7.14724 45.9618 7.27946 46.1601C7.6748 46.747 8.31166 46.925 8.95257 46.635C9.11853 46.5601 9.27909 46.4556 9.41537 46.3342C9.83094 45.9645 9.9092 45.4492 9.60157 44.9851C9.42481 44.718 9.20353 44.4779 8.98765 44.2391C8.47222 43.6671 7.93521 43.1127 7.43598 42.5258C7.08922 42.1238 6.85309 41.6571 6.77753 41.1228C6.6959 40.5347 6.81343 39.9816 7.1189 39.4905C7.87854 38.2615 8.9809 37.6288 10.4381 37.6693C11.2706 37.6994 11.9358 38.0889 12.4485 38.7364C12.601 38.928 12.744 39.1263 12.8992 39.334" fill="#3C3A3E"/>
<path fill-rule="evenodd" clip-rule="evenodd" d="M26.9932 45.8631C26.8962 46.6037 26.8043 47.3066 26.7098 48.0081C26.7046 48.0439 26.6766 48.0924 26.6466 48.1061C25.2028 48.7726 23.3138 48.6795 22.14 47.3385C21.5058 46.6181 21.24 45.7602 21.2791 44.8158C21.3713 42.6169 23.1951 40.6878 25.3809 40.418C26.656 40.2615 27.7692 40.6055 28.6327 41.597C29.221 42.2716 29.4935 43.081 29.4531 43.9713C29.4267 44.5595 29.3345 45.1437 29.2615 45.7251C29.1576 46.5534 29.0442 47.3844 28.9349 48.2073C28.9307 48.2362 28.9249 48.2657 28.9181 48.3032H27.2045C27.2272 48.113 27.2482 47.9268 27.2725 47.7407C27.3969 46.7842 27.5342 45.8251 27.6435 44.8672C27.7115 44.271 27.6688 43.6787 27.3953 43.127C27.1052 42.5402 26.6194 42.2285 25.9785 42.1611C24.6535 42.0208 23.3879 42.9408 23.1181 44.2386C22.9319 45.0993 23.2256 45.9249 23.9114 46.3836C24.5793 46.8274 25.2877 46.8287 26.0163 46.5414C26.386 46.3957 26.699 46.1637 26.9986 45.852" fill="#3C3A3E"/>
<path fill-rule="evenodd" clip-rule="evenodd" d="M34.2794 40.6426C34.2009 41.2389 34.1229 41.8257 34.0446 42.4233C33.6803 42.4233 33.3241 42.4213 32.9679 42.4239C32.6792 42.426 32.416 42.6127 32.3283 42.8825C32.2946 42.9879 32.2821 43.1011 32.2672 43.2117C32.0864 44.5877 31.907 45.9502 31.7275 47.3128C31.6822 47.6581 31.6385 48.0035 31.5931 48.3542H29.7986C29.8318 48.0911 29.8633 47.8362 29.8965 47.5812C30.013 46.6935 30.13 45.8005 30.2474 44.9236C30.3491 44.156 30.4403 43.3857 30.5604 42.6168C30.7209 41.5915 31.741 40.6742 32.7732 40.6337C33.267 40.6121 33.7622 40.63 34.2709 40.63" fill="#3C3A3E"/>
<path d="M43.8592 48.4262V47.6707H43.8551L43.5582 48.4262H43.4639L43.1671 47.6707H43.1623V48.4262H43.0139V47.521H43.2447L43.5145 48.209L43.7803 47.521H44.0097V48.4262H43.8592ZM42.5451 47.6424V48.4262H42.3966V47.6424H42.1133V47.5211H42.8297V47.6424H42.5464" fill="#3C3A3E"/>
<path d="M15.295 38.0521H15.7389L15.634 37.3803L15.295 38.0521ZM15.8091 38.4865H15.071L14.8363 38.9465H14.3127L15.4664 36.7881H15.971L16.3636 38.9465H15.8793L15.8096 38.4865" fill="#3C3A3E"/>
<path d="M18.4522 37.2295H18.1891L18.1006 37.7272H18.3637C18.5229 37.7272 18.6484 37.623 18.6484 37.4264C18.6484 37.2962 18.5693 37.2295 18.4514 37.2295H18.4522ZM17.8153 36.7951H18.5062C18.8678 36.7951 19.1201 37.0109 19.1201 37.3805C19.1201 37.8473 18.7908 38.1603 18.3213 38.1603H18.0231L17.8828 38.9495H17.4321L17.8126 36.791" fill="#3C3A3E"/>
<path d="M20.6516 38.0521H21.0955L20.9907 37.3803L20.6516 38.0521ZM21.1643 38.4865H20.4263L20.1915 38.9465H19.668L20.8216 36.7881H21.3262L21.7189 38.9465H21.2345L21.1649 38.4865" fill="#3C3A3E"/>
<path d="M24.0249 38.8751C23.8724 38.9447 23.7051 38.9863 23.5365 38.9863C22.9657 38.9863 22.6082 38.5586 22.6082 38.0231C22.6082 37.3378 23.1843 36.7617 23.8697 36.7617C24.0411 36.7617 24.1963 36.8029 24.3231 36.8723L24.2598 37.389C24.1649 37.2842 24.0115 37.2109 23.8226 37.2109C23.43 37.2109 23.0805 37.5657 23.0805 37.9772C23.0805 38.2902 23.2775 38.5357 23.5879 38.5357C23.7781 38.5357 23.9616 38.4624 24.0857 38.3617L24.0257 38.8743" fill="#3C3A3E"/>
<path d="M26.8584 38.0791H25.9206L25.7682 38.9465H25.3188L25.6993 36.7881H26.15L25.9989 37.6407H26.9366L27.0891 36.7881H27.5398L27.1593 38.9465H26.7086L26.8597 38.0791" fill="#3C3A3E"/>
<path d="M28.4773 38.9426L28.8578 36.7842H30.0532L29.9773 37.2186H29.2325L29.1565 37.6368H29.8406L29.7646 38.0712H29.0806L29.0046 38.5055H29.7494L29.6734 38.9399H28.478" fill="#3C3A3E"/>
</g>
<rect x="-26" y="-3" width="107" height="21" fill="#F4F6FB"/>
<path d="M19.5541 10.6707C19.5541 11.428 19.2806 12.0247 18.7336 12.4607C18.1905 12.8967 17.4332 13.1147 16.4617 13.1147C15.5667 13.1147 14.7749 12.9465 14.0864 12.6099V10.9575C14.6525 11.21 15.1306 11.3878 15.5208 11.4911C15.9147 11.5944 16.2743 11.646 16.5994 11.646C16.9895 11.646 17.2878 11.5714 17.4944 11.4222C17.7048 11.2731 17.8099 11.0512 17.8099 10.7567C17.8099 10.5922 17.764 10.4469 17.6722 10.3207C17.5804 10.1906 17.4447 10.0663 17.2649 9.94775C17.0889 9.82918 16.7275 9.63985 16.1805 9.37976C15.668 9.13879 15.2836 8.90739 15.0273 8.68555C14.7711 8.4637 14.5664 8.20553 14.4135 7.91101C14.2605 7.6165 14.184 7.27226 14.184 6.8783C14.184 6.13627 14.4345 5.55298 14.9355 5.12842C15.4404 4.70386 16.1366 4.49158 17.0239 4.49158C17.46 4.49158 17.875 4.54321 18.2689 4.64648C18.6667 4.74976 19.0817 4.8951 19.5139 5.08252L18.9402 6.46521C18.4927 6.28162 18.1217 6.15348 17.8271 6.08081C17.5365 6.00814 17.2496 5.9718 16.9666 5.9718C16.63 5.9718 16.3718 6.05021 16.192 6.20703C16.0122 6.36385 15.9224 6.56848 15.9224 6.82092C15.9224 6.97774 15.9587 7.11544 16.0314 7.23401C16.104 7.34875 16.2188 7.46159 16.3756 7.57251C16.5363 7.67961 16.913 7.87467 17.5059 8.15771C18.29 8.53255 18.8274 8.9093 19.118 9.28796C19.4087 9.6628 19.5541 10.1237 19.5541 10.6707Z" fill="black"/>
<path d="M23.189 13.1147C21.1924 13.1147 20.1941 12.0189 20.1941 9.82727C20.1941 8.73718 20.4657 7.90527 21.0088 7.33154C21.552 6.75399 22.3303 6.46521 23.3439 6.46521C24.0859 6.46521 24.7515 6.61055 25.3405 6.90125L24.8241 8.25525C24.5487 8.14433 24.2925 8.05444 24.0553 7.9856C23.8182 7.91292 23.5811 7.87659 23.3439 7.87659C22.4336 7.87659 21.9784 8.52299 21.9784 9.8158C21.9784 11.0704 22.4336 11.6976 23.3439 11.6976C23.6805 11.6976 23.9922 11.6536 24.2791 11.5657C24.566 11.4739 24.8528 11.3324 25.1397 11.1411V12.6385C24.8566 12.8183 24.5698 12.9426 24.2791 13.0115C23.9922 13.0803 23.6289 13.1147 23.189 13.1147Z" fill="black"/>
<path d="M30.3524 13L30.0139 12.1279H29.968C29.6735 12.4989 29.3694 12.7571 29.0557 12.9025C28.7459 13.044 28.3405 13.1147 27.8394 13.1147C27.2236 13.1147 26.7379 12.9388 26.3822 12.5869C26.0303 12.235 25.8543 11.734 25.8543 11.0837C25.8543 10.4029 26.0915 9.90186 26.5658 9.58057C27.0439 9.25545 27.7629 9.07568 28.723 9.04126L29.836 9.00684V8.72571C29.836 8.07548 29.5033 7.75037 28.8377 7.75037C28.3252 7.75037 27.7228 7.90527 27.0305 8.21509L26.451 7.0332C27.1892 6.64689 28.0077 6.45374 28.9066 6.45374C29.7672 6.45374 30.427 6.64115 30.8859 7.01599C31.3449 7.39083 31.5744 7.96073 31.5744 8.72571V13H30.3524ZM29.836 10.0281L29.159 10.051C28.6503 10.0663 28.2716 10.1581 28.023 10.3264C27.7744 10.4947 27.6501 10.751 27.6501 11.0952C27.6501 11.5886 27.9331 11.8353 28.4992 11.8353C28.9047 11.8353 29.2279 11.7187 29.4688 11.4854C29.7136 11.252 29.836 10.9422 29.836 10.5559V10.0281Z" fill="black"/>
<path d="M34.779 13H33.0292V4.07275H34.779V13Z" fill="black"/>
<path d="M40.3417 13L40.0032 12.1279H39.9573C39.6628 12.4989 39.3587 12.7571 39.0451 12.9025C38.7353 13.044 38.3298 13.1147 37.8288 13.1147C37.213 13.1147 36.7272 12.9388 36.3715 12.5869C36.0196 12.235 35.8437 11.734 35.8437 11.0837C35.8437 10.4029 36.0808 9.90186 36.5551 9.58057C37.0332 9.25545 37.7523 9.07568 38.7123 9.04126L39.8254 9.00684V8.72571C39.8254 8.07548 39.4926 7.75037 38.8271 7.75037C38.3145 7.75037 37.7121 7.90527 37.0198 8.21509L36.4403 7.0332C37.1785 6.64689 37.9971 6.45374 38.8959 6.45374C39.7565 6.45374 40.4163 6.64115 40.8753 7.01599C41.3343 7.39083 41.5638 7.96073 41.5638 8.72571V13H40.3417ZM39.8254 10.0281L39.1483 10.051C38.6396 10.0663 38.261 10.1581 38.0124 10.3264C37.7637 10.4947 37.6394 10.751 37.6394 11.0952C37.6394 11.5886 37.9225 11.8353 38.4886 11.8353C38.894 11.8353 39.2172 11.7187 39.4582 11.4854C39.703 11.252 39.8254 10.9422 39.8254 10.5559V10.0281Z" fill="black"/>
<path d="M25.065 25.4977C25.065 26.0682 25.0104 26.5721 24.901 27.0093C24.7948 27.4434 24.6338 27.8093 24.4182 28.107C24.2057 28.4016 23.9415 28.6248 23.6257 28.7767C23.3129 28.9256 22.95 29 22.5371 29C22.1271 29 21.7643 28.924 21.4484 28.7721C21.1326 28.6202 20.8669 28.3969 20.6513 28.1023C20.4357 27.8047 20.2733 27.4372 20.164 27C20.0547 26.5628 20 26.0589 20 25.4884C20 24.7318 20.0957 24.0946 20.287 23.5767C20.4813 23.0589 20.7667 22.6667 21.1433 22.4C21.5228 22.1333 21.9874 22 22.5371 22C23.0897 22 23.5528 22.1318 23.9263 22.3953C24.3028 22.6589 24.5867 23.0512 24.7781 23.5721C24.9694 24.0899 25.065 24.7318 25.065 25.4977ZM21.6489 25.4977C21.6489 25.9597 21.6823 26.3457 21.7491 26.6558C21.8159 26.9659 21.9146 27.1984 22.0451 27.3535C22.1787 27.5054 22.3427 27.5814 22.5371 27.5814C22.7375 27.5814 22.9014 27.507 23.029 27.3581C23.1596 27.2093 23.2552 26.9814 23.3159 26.6744C23.3797 26.3643 23.4116 25.9721 23.4116 25.4977C23.4116 24.7783 23.3387 24.2481 23.193 23.907C23.0502 23.5628 22.8316 23.3907 22.5371 23.3907C22.3427 23.3907 22.1787 23.4698 22.0451 23.6279C21.9146 23.7829 21.8159 24.0171 21.7491 24.3302C21.6823 24.6403 21.6489 25.0295 21.6489 25.4977Z" fill="#3C3A3E"/>
<path d="M31 28.907H29.1507L27.4153 24.6791H27.3789C27.3971 24.9271 27.4108 25.1581 27.4199 25.3721C27.432 25.5829 27.4396 25.7752 27.4427 25.9488C27.4487 26.1194 27.4518 26.2698 27.4518 26.4V28.907H25.9805V22.107H27.8161L29.5424 26.2186H29.5789C29.5667 25.9891 29.5561 25.7752 29.547 25.5767C29.5379 25.3783 29.5303 25.1953 29.5242 25.0279C29.5182 24.8605 29.5151 24.7085 29.5151 24.5721V22.107H31V28.907Z" fill="#3C3A3E"/>
</g>
<defs>
<clipPath id="clip0_3526_17609">
<rect width="52" height="52" fill="white"/>
</clipPath>
<clipPath id="clip1_3526_17609">
<rect width="42" height="21.8077" fill="white" transform="translate(5 29)"/>
</clipPath>
</defs>
</svg>
