<svg width="18" height="18" viewBox="0 0 18 18" fill="none" xmlns="http://www.w3.org/2000/svg">
<g clip-path="url(#clip0_6111_27079)">
<path d="M5.85 15.3C5.475 15.3 5.15625 15.1687 4.89375 14.9062C4.63125 14.6437 4.5 14.325 4.5 13.95V4.95H3.6V3.6H7.2V2.7H10.8V3.6H14.4V4.95H13.5V13.95C13.5 14.325 13.3688 14.6437 13.1063 14.9062C12.8438 15.1687 12.525 15.3 12.15 15.3H5.85ZM12.15 4.95H5.85V13.95H12.15V4.95ZM7.2 12.6H8.55V6.3H7.2V12.6ZM9.45 12.6H10.8V6.3H9.45V12.6ZM5.85 4.95V13.95V4.95Z" fill="#616161"/>
</g>
<defs>
<clipPath id="clip0_6111_27079">
<rect width="18" height="18" fill="white"/>
</clipPath>
</defs>
</svg>
