<svg width="18" height="18" viewBox="0 0 18 18" fill="none" xmlns="http://www.w3.org/2000/svg">
<g clip-path="url(#clip0_6111_27097)">
<path d="M4.05 16.2C3.675 16.2 3.35625 16.0687 3.09375 15.8062C2.83125 15.5437 2.7 15.225 2.7 14.85V4.95C2.7 4.5875 2.83125 4.275 3.09375 4.0125C3.36875 3.7375 3.6875 3.6 4.05 3.6H5.4V1.8H6.75V3.6H11.25V1.8H12.6V3.6H13.95C14.3125 3.6 14.625 3.7375 14.8875 4.0125C15.1625 4.275 15.3 4.5875 15.3 4.95V9H13.95V8.1H4.05V14.85H9.45V16.2H4.05ZM4.05 6.75H13.95V4.95H4.05V6.75ZM4.05 6.75V4.95V6.75ZM10.8 16.2V14.0812L14.7375 10.1625C14.825 10.075 14.925 10.0125 15.0375 9.975C15.15 9.925 15.2625 9.9 15.375 9.9C15.4875 9.9 15.6 9.925 15.7125 9.975C15.825 10.0125 15.925 10.075 16.0125 10.1625L16.8375 11.0062C16.925 11.0937 16.9875 11.1937 17.025 11.3062C17.075 11.4187 17.1 11.5312 17.1 11.6437C17.1 11.7562 17.075 11.8687 17.025 11.9812C16.9875 12.0937 16.925 12.1937 16.8375 12.2812L12.9188 16.2H10.8ZM16.2 11.6437L15.3563 10.8L16.2 11.6437ZM11.7 15.3H12.5438L14.7 13.1437L14.2875 12.7125L13.875 12.3L11.7 14.4562V15.3ZM14.2875 12.7125L13.875 12.3L14.7 13.1437L14.2875 12.7125Z" fill="#616161"/>
</g>
<defs>
<clipPath id="clip0_6111_27097">
<rect width="18" height="18" fill="white"/>
</clipPath>
</defs>
</svg>
