<svg width="18" height="18" viewBox="0 0 18 18" fill="none" xmlns="http://www.w3.org/2000/svg">
<g clip-path="url(#clip0_6109_116757)">
<path d="M4.05 16.2C3.675 16.2 3.35625 16.0687 3.09375 15.8062C2.83125 15.5312 2.7 15.2125 2.7 14.85V4.95C2.7 4.5875 2.83125 4.275 3.09375 4.0125C3.35625 3.7375 3.675 3.6 4.05 3.6H5.4V1.8H6.75V3.6H11.25V1.8H12.6V3.6H13.95C14.325 3.6 14.6438 3.7375 14.9063 4.0125C15.1688 4.275 15.3 4.5875 15.3 4.95V14.85C15.3 15.2125 15.1688 15.5312 14.9063 15.8062C14.6438 16.0687 14.325 16.2 13.95 16.2H4.05ZM4.05 14.85H13.95V8.1H4.05V14.85ZM4.05 6.75H13.95V4.95H4.05V6.75ZM4.05 6.75V4.95V6.75ZM9 10.8C8.8125 10.8 8.65 10.7375 8.5125 10.6125C8.3875 10.475 8.325 10.3125 8.325 10.125C8.325 9.9375 8.3875 9.78125 8.5125 9.65625C8.65 9.51875 8.8125 9.45 9 9.45C9.1875 9.45 9.34375 9.51875 9.46875 9.65625C9.60625 9.78125 9.675 9.9375 9.675 10.125C9.675 10.3125 9.60625 10.475 9.46875 10.6125C9.34375 10.7375 9.1875 10.8 9 10.8ZM6.075 10.8C5.8875 10.8 5.725 10.7375 5.5875 10.6125C5.4625 10.475 5.4 10.3125 5.4 10.125C5.4 9.9375 5.4625 9.78125 5.5875 9.65625C5.725 9.51875 5.8875 9.45 6.075 9.45C6.2625 9.45 6.41875 9.51875 6.54375 9.65625C6.68125 9.78125 6.75 9.9375 6.75 10.125C6.75 10.3125 6.68125 10.475 6.54375 10.6125C6.41875 10.7375 6.2625 10.8 6.075 10.8ZM11.925 10.8C11.7375 10.8 11.575 10.7375 11.4375 10.6125C11.3125 10.475 11.25 10.3125 11.25 10.125C11.25 9.9375 11.3125 9.78125 11.4375 9.65625C11.575 9.51875 11.7375 9.45 11.925 9.45C12.1125 9.45 12.2688 9.51875 12.3938 9.65625C12.5313 9.78125 12.6 9.9375 12.6 10.125C12.6 10.3125 12.5313 10.475 12.3938 10.6125C12.2688 10.7375 12.1125 10.8 11.925 10.8ZM9 13.5C8.8125 13.5 8.65 13.4375 8.5125 13.3125C8.3875 13.175 8.325 13.0125 8.325 12.825C8.325 12.6375 8.3875 12.4812 8.5125 12.3562C8.65 12.2187 8.8125 12.15 9 12.15C9.1875 12.15 9.34375 12.2187 9.46875 12.3562C9.60625 12.4812 9.675 12.6375 9.675 12.825C9.675 13.0125 9.60625 13.175 9.46875 13.3125C9.34375 13.4375 9.1875 13.5 9 13.5ZM6.075 13.5C5.8875 13.5 5.725 13.4375 5.5875 13.3125C5.4625 13.175 5.4 13.0125 5.4 12.825C5.4 12.6375 5.4625 12.4812 5.5875 12.3562C5.725 12.2187 5.8875 12.15 6.075 12.15C6.2625 12.15 6.41875 12.2187 6.54375 12.3562C6.68125 12.4812 6.75 12.6375 6.75 12.825C6.75 13.0125 6.68125 13.175 6.54375 13.3125C6.41875 13.4375 6.2625 13.5 6.075 13.5ZM11.925 13.5C11.7375 13.5 11.575 13.4375 11.4375 13.3125C11.3125 13.175 11.25 13.0125 11.25 12.825C11.25 12.6375 11.3125 12.4812 11.4375 12.3562C11.575 12.2187 11.7375 12.15 11.925 12.15C12.1125 12.15 12.2688 12.2187 12.3938 12.3562C12.5313 12.4812 12.6 12.6375 12.6 12.825C12.6 13.0125 12.5313 13.175 12.3938 13.3125C12.2688 13.4375 12.1125 13.5 11.925 13.5Z" fill="#616161"/>
</g>
<defs>
<clipPath id="clip0_6109_116757">
<rect width="18" height="18" fill="white"/>
</clipPath>
</defs>
</svg>
