<svg width="18" height="18" viewBox="0 0 18 18" fill="none" xmlns="http://www.w3.org/2000/svg">
<g clip-path="url(#clip0_6111_27086)">
<path d="M4.05 13.95H5.00625L12.0375 6.91875L11.0813 5.9625L4.05 12.9937V13.95ZM2.7 15.3V12.4312L12.0375 3.09375C12.175 2.95625 12.325 2.85625 12.4875 2.79375C12.65 2.73125 12.8188 2.7 12.9938 2.7C13.1688 2.7 13.3375 2.73125 13.5 2.79375C13.6625 2.85625 13.8125 2.95625 13.95 3.09375L14.9063 4.05C15.0438 4.1875 15.1438 4.3375 15.2063 4.5C15.2688 4.6625 15.3 4.83125 15.3 5.00625C15.3 5.18125 15.2688 5.35 15.2063 5.5125C15.1438 5.675 15.0438 5.825 14.9063 5.9625L5.56875 15.3H2.7ZM13.95 5.00625L12.9938 4.05L13.95 5.00625ZM11.55 6.45L11.0813 5.9625L12.0375 6.91875L11.55 6.45Z" fill="#616161"/>
</g>
<defs>
<clipPath id="clip0_6111_27086">
<rect width="18" height="18" fill="white"/>
</clipPath>
</defs>
</svg>
