<svg width="18" height="18" viewBox="0 0 18 18" fill="none" xmlns="http://www.w3.org/2000/svg">
<g clip-path="url(#clip0_6142_27145)">
<path d="M7.2 12.15L12.15 9L7.2 5.85V12.15ZM9 16.2C8.0125 16.2 7.08125 16.0125 6.20625 15.6375C5.33125 15.2625 4.5625 14.75 3.9 14.1C3.25 13.4375 2.7375 12.6687 2.3625 11.7937C1.9875 10.9187 1.8 9.9875 1.8 9C1.8 8 1.9875 7.06875 2.3625 6.20625C2.7375 5.33125 3.25 4.56875 3.9 3.91875C4.5625 3.25625 5.33125 2.7375 6.20625 2.3625C7.08125 1.9875 8.0125 1.8 9 1.8C10 1.8 10.9313 1.9875 11.7938 2.3625C12.6688 2.7375 13.4313 3.25625 14.0813 3.91875C14.7438 4.56875 15.2625 5.33125 15.6375 6.20625C16.0125 7.06875 16.2 8 16.2 9C16.2 9.9875 16.0125 10.9187 15.6375 11.7937C15.2625 12.6687 14.7438 13.4375 14.0813 14.1C13.4313 14.75 12.6688 15.2625 11.7938 15.6375C10.9313 16.0125 10 16.2 9 16.2ZM9 14.85C10.625 14.85 12.0063 14.2812 13.1438 13.1437C14.2813 12.0062 14.85 10.625 14.85 9C14.85 7.375 14.2813 5.99375 13.1438 4.85625C12.0063 3.71875 10.625 3.15 9 3.15C7.375 3.15 5.99375 3.71875 4.85625 4.85625C3.71875 5.99375 3.15 7.375 3.15 9C3.15 10.625 3.71875 12.0062 4.85625 13.1437C5.99375 14.2812 7.375 14.85 9 14.85Z" fill="#616161"/>
</g>
<defs>
<clipPath id="clip0_6142_27145">
<rect width="18" height="18" fill="white"/>
</clipPath>
</defs>
</svg>
