<svg width="52" height="52" viewBox="0 0 52 52" fill="none" xmlns="http://www.w3.org/2000/svg">
<g clip-path="url(#clip0_5710_62659)">
<path fill-rule="evenodd" clip-rule="evenodd" d="M41.2402 23.229L36.8861 26.1318L41.2402 29.0346L43.4173 30.486L41.2402 31.9373L36.8861 34.8401L26.0007 42.0971L15.1152 34.8401L10.7611 31.9373L8.58398 30.486L10.7611 29.0346L15.1055 26.1383L15.09 26.115L10.7611 23.229L8.58398 21.7776L10.7611 20.3262L26.0007 10.1665L41.2402 20.3262L43.4173 21.7776L41.2402 23.229ZM24.5493 14.0417V19.2892L16.853 24.3875L12.9382 21.7776L24.5493 14.0417ZM27.452 19.8473L34.709 24.6804L39.0632 21.7776L27.452 14.0417V19.8473ZM27.584 38.1387V32.3332H30.7507L26.0007 25.9998L21.2507 32.3332H24.4173V38.1387L12.9382 30.486L17.2923 27.5832L26.0007 21.7786L34.709 27.5832L39.0632 30.486L27.584 38.1387Z" fill="#3367D6"/>
</g>
<defs>
<clipPath id="clip0_5710_62659">
<rect width="38" height="38" fill="white" transform="translate(7 7)"/>
</clipPath>
</defs>
</svg>
