<svg width="52" height="52" viewBox="0 0 52 52" fill="none" xmlns="http://www.w3.org/2000/svg">
<rect width="52" height="52" fill="white"/>
<g clip-path="url(#clip0_2788_15614)">
<path fill-rule="evenodd" clip-rule="evenodd" d="M41.2396 23.229L36.8855 26.1318L41.2396 29.0346L43.4167 30.486L41.2396 31.9373L36.8855 34.8401L26 42.0971L15.1146 34.8401L10.7605 31.9373L8.58337 30.486L10.7605 29.0346L15.1049 26.1383L15.0894 26.115L10.7605 23.229L8.58337 21.7776L10.7605 20.3262L26 10.1665L41.2396 20.3262L43.4167 21.7776L41.2396 23.229ZM24.5487 14.0417V19.2892L16.8524 24.3875L12.9375 21.7776L24.5487 14.0417ZM27.4514 19.8473L34.7084 24.6804L39.0625 21.7776L27.4514 14.0417V19.8473ZM27.5834 38.1387V32.3332H30.75L26 25.9998L21.25 32.3332H24.4167V38.1387L12.9375 30.486L17.2917 27.5832L26 21.7786L34.7084 27.5832L39.0625 30.486L27.5834 38.1387Z" fill="#3367D6"/>
</g>
<defs>
<clipPath id="clip0_2788_15614">
<rect width="38" height="38" fill="white" transform="translate(7 7)"/>
</clipPath>
</defs>
</svg>
