<svg width="18" height="18" viewBox="0 0 18 18" fill="none" xmlns="http://www.w3.org/2000/svg">
<g clip-path="url(#clip0_3157_68049)">
<path fill-rule="evenodd" clip-rule="evenodd" d="M17.25 7L16.2188 7.6875L14.1562 9.0625L16.2188 10.4375L17.25 11.125L16.2188 11.8125L14.1562 13.1875L9 16.625L3.84375 13.1875L1.78125 11.8125L0.75 11.125L1.78125 10.4375L3.83913 9.06558L3.83182 9.05454L1.78125 7.6875L0.75 7L1.78125 6.3125L9 1.5L16.2188 6.3125L17.25 7ZM8.3125 3.33562V5.50562L4.42942 8.07795L2.8125 7L8.3125 3.33562ZM9.6875 6.08563L13.125 8.375L15.1875 7L9.6875 3.33562V6.08563ZM9.75 14.75V12H11.25L9 9L6.75 12H8.25V14.75L2.8125 11.125L4.875 9.75L9 7.00047L13.125 9.75L15.1875 11.125L9.75 14.75Z" fill="#616161"/>
</g>
<defs>
<clipPath id="clip0_3157_68049">
<rect width="18" height="18" fill="white"/>
</clipPath>
</defs>
</svg>
