<svg width="31" height="29" viewBox="0 0 31 29" fill="none" xmlns="http://www.w3.org/2000/svg">
<path fill-rule="evenodd" clip-rule="evenodd" d="M25.3562 18.5132L9.06505 27.9289L7.5093 25.2371L23.8005 15.8214L25.3562 18.5132Z" fill="#85A4E6"/>
<path fill-rule="evenodd" clip-rule="evenodd" d="M9.00774 24.8616L9.00024 6.04559L11.9935 6.04419L12.0002 22.5972L9.00774 24.8616Z" fill="#85A4E6"/>
<path fill-rule="evenodd" clip-rule="evenodd" d="M12.103 11.3096L11.6797 7.52124L27.9792 16.9225L26.4259 19.6157L12.103 11.3096Z" fill="#85A4E6"/>
<path fill-rule="evenodd" clip-rule="evenodd" d="M19.8295 12.2219L11.6797 7.52124L12.103 11.3096L14.5156 12.6874C16.4101 13.3677 18.77 13.0119 19.8295 12.2219Z" fill="#3367D6"/>
<path fill-rule="evenodd" clip-rule="evenodd" d="M9.8071 9.0613L9.8069 9.061C9.2795 8.1476 9.0004 7.1049 9 6.0453C8.9994 4.4316 9.627 2.9137 10.768 1.7718C11.909 0.629901 13.4262 0.000700647 15.0402 6.46588e-07C17.1939 -0.000999353 19.2013 1.158 20.2791 3.0245C20.8065 3.9379 21.0854 4.9808 21.086 6.0402C21.0871 9.3725 18.3772 12.0846 15.0453 12.0858C12.8919 12.0863 10.8846 10.9275 9.8071 9.0613ZM17.5866 4.579C17.0627 3.6716 16.0874 3.1083 15.0416 3.1088C14.258 3.1093 13.5214 3.4147 12.9675 3.9691C12.4136 4.5235 12.1088 5.2604 12.109 6.0441C12.1093 6.5589 12.2443 7.0647 12.4993 7.5064C13.0232 8.4138 13.998 8.977 15.0443 8.9766C16.662 8.9762 17.9775 7.6593 17.9769 6.0413C17.9768 5.5268 17.8418 5.021 17.5866 4.579Z" fill="#85A4E6"/>
<path fill-rule="evenodd" clip-rule="evenodd" d="M9.00439 16.5056L9.00779 24.8614L12.0002 22.5969L11.9995 19.9898C11.6524 18.2819 10.2041 17.0405 9.00439 16.5056Z" fill="#3367D6"/>
<path fill-rule="evenodd" clip-rule="evenodd" d="M18.122 22.6935L25.3569 18.5124L21.8246 16.9619L19.8294 18.116C18.7904 19.2079 17.9676 21.3548 18.122 22.6935Z" fill="#3367D6"/>
<path fill-rule="evenodd" clip-rule="evenodd" d="M0.809447 25.719L0.808247 25.7169C-0.857153 22.8326 0.134247 19.1298 3.01805 17.4634C4.41535 16.6556 6.04385 16.4407 7.60325 16.8578C9.16265 17.2749 10.466 18.2742 11.2736 19.6717C12.9402 22.5581 11.949 26.2607 9.06545 27.9274C6.18015 29.5948 2.47665 28.6041 0.809447 25.719ZM8.58255 21.2287C8.18975 20.5489 7.55685 20.0638 6.79975 19.8611C6.04275 19.6587 5.25215 19.7632 4.57365 20.1553C3.17355 20.9644 2.69215 22.7621 3.50085 24.1627L3.50135 24.1635C4.31085 25.5643 6.10905 26.0452 7.50985 25.2357C8.90975 24.4263 9.39115 22.629 8.58255 21.2287Z" fill="#85A4E6"/>
<path fill-rule="evenodd" clip-rule="evenodd" d="M19.7283 25.1829C19.7281 25.1826 19.7281 25.1826 19.7281 25.1826C18.6515 23.3179 18.6504 21.0015 19.7254 19.1381C20.5319 17.7399 21.8348 16.7395 23.3938 16.321C24.9528 15.9026 26.5812 16.1162 27.9794 16.9226C28.8987 17.4527 29.6637 18.2167 30.192 19.1316C31.2686 20.9963 31.2697 23.3127 30.1946 25.1765C29.3881 26.5747 28.0852 27.5751 26.5265 27.9934C24.9675 28.4118 23.3389 28.198 21.9406 27.3913C21.0214 26.8615 20.2564 26.0976 19.7283 25.1829ZM27.4995 20.6862C27.2439 20.2434 26.8727 19.8733 26.4261 19.6158C25.0247 18.8074 23.2268 19.2901 22.4187 20.6913C21.8966 21.5965 21.8974 22.7217 22.4207 23.628C22.6763 24.0708 23.0475 24.4409 23.4941 24.6984C24.1733 25.0902 24.9638 25.194 25.7206 24.9909C26.4776 24.7877 27.1098 24.3021 27.5015 23.6233C28.0234 22.7182 28.0228 21.5925 27.4995 20.6862Z" fill="#85A4E6"/>
<path fill-rule="evenodd" clip-rule="evenodd" d="M11.9864 21.6326C11.9864 21.6326 8.23897 24.814 7.50977 25.2356L12.0727 22.5987C12.0676 22.2586 12.0497 21.9713 11.9864 21.6326Z" fill="#5C85DE"/>
<path fill-rule="evenodd" clip-rule="evenodd" d="M13.0359 11.7302C13.0359 11.7302 12.1011 6.55899 12.1008 6.04419L12.103 11.3098C12.4015 11.4747 12.7132 11.6163 13.0359 11.7302Z" fill="#5C85DE"/>
<path fill-rule="evenodd" clip-rule="evenodd" d="M21.2842 17.3536C21.2842 17.3536 25.6961 19.1949 26.4261 19.6159L21.8611 16.9829C21.5671 17.1599 21.5439 17.1302 21.2842 17.3536Z" fill="#5C85DE"/>
</svg>
