<svg width="52" height="52" viewBox="0 0 52 52" fill="none" xmlns="http://www.w3.org/2000/svg">
<rect width="52" height="52" fill="white"/>
<g clip-path="url(#clip0_3526_17630)">
<path fill-rule="evenodd" clip-rule="evenodd" d="M30.9412 25.9583C30.9119 25.897 30.8987 25.8661 30.8829 25.8367C30.4591 25.0473 30.0364 24.2579 29.6082 23.4686C29.5653 23.3894 29.5707 23.3427 29.6295 23.2744C30.3038 22.5032 30.9695 21.7277 31.645 20.9597C31.6688 20.9326 31.6901 20.9039 31.699 20.8556C31.5029 20.9056 31.3068 20.9551 31.1096 21.006C30.2958 21.2172 29.4754 21.4273 28.6692 21.6417C28.5935 21.6617 28.5592 21.64 28.521 21.5784C28.0591 20.8221 27.5939 20.0636 27.1265 19.3169C27.1026 19.2778 27.0766 19.2398 27.0256 19.207C26.9881 19.4087 26.9502 19.6092 26.9134 19.8108C26.7837 20.5223 26.6541 21.2295 26.5255 21.9442C26.5115 22.0209 26.4923 22.0978 26.4856 22.1747C26.4791 22.248 26.4404 22.2751 26.3722 22.2963C25.4124 22.5917 24.4548 22.8894 23.496 23.187C23.454 23.1999 23.4127 23.2169 23.3675 23.2569C24.1519 23.562 24.9363 23.8671 25.7316 24.1775C25.7027 24.2 25.6835 24.2175 25.6622 24.2309C25.172 24.5413 24.6806 24.8517 24.1914 25.1632C24.1327 25.2007 24.0863 25.206 24.0204 25.1769C23.4343 24.9188 22.8438 24.6649 22.2554 24.4089C21.9918 24.2937 21.7554 24.1411 21.5713 23.9193C21.154 23.42 21.2368 22.8525 21.7924 22.5005C21.9744 22.3864 22.1814 22.3021 22.3873 22.236C23.3275 21.9362 24.2721 21.6472 25.209 21.357C25.2881 21.3324 25.3245 21.2978 25.3398 21.2141C25.4661 20.5015 25.5958 19.7847 25.7276 19.0806C25.7978 18.6998 25.8348 18.3105 26.0239 17.9606C26.0964 17.8262 26.183 17.695 26.2876 17.583C26.6624 17.1755 27.1842 17.1606 27.5841 17.548C27.7181 17.6792 27.8325 17.8328 27.9316 17.9917C28.3674 18.6883 28.7967 19.3891 29.2281 20.0932C29.2788 20.1761 29.3243 20.1927 29.4177 20.1686C30.469 19.8923 31.5203 19.6203 32.5771 19.3483C32.795 19.2921 33.014 19.2717 33.2374 19.3125C33.7222 19.4013 33.9346 19.7627 33.7701 20.2225C33.6957 20.4315 33.5664 20.6075 33.4215 20.775C32.6872 21.6209 31.9507 22.4711 31.2207 23.3138C31.1607 23.3829 31.1595 23.4322 31.2011 23.5101C31.6413 24.3218 32.0771 25.1315 32.5194 25.9529C32.6241 26.147 32.7046 26.3497 32.7068 26.5726C32.7119 27.0804 32.332 27.4964 31.8167 27.5711C31.528 27.6123 31.26 27.552 30.9887 27.4703C30.3296 27.2708 29.6704 27.0745 29.0058 26.8793C28.9445 26.8614 28.9211 26.8376 28.9101 26.7731C28.8342 26.3176 28.751 25.8631 28.6704 25.4077C28.6683 25.3952 28.6721 25.3818 28.6743 25.3539C29.4271 25.5576 30.1778 25.7582 30.9513 25.9683" fill="#E25A1C"/>
<path fill-rule="evenodd" clip-rule="evenodd" d="M29.6337 32.6256C29.0389 32.6247 28.4462 32.6218 27.847 32.6244C27.7682 32.6244 27.7239 32.6023 27.6803 32.5368C26.9765 31.4872 26.264 30.4354 25.5667 29.39C25.5442 29.3567 25.5203 29.3246 25.4803 29.2684C25.3289 30.3991 25.1796 31.5085 25.0304 32.6179H23.4724C23.4907 32.4696 23.5069 32.3256 23.5261 32.1827C23.6776 31.0413 23.8312 29.9105 23.9837 28.7692C24.1297 27.6811 24.2746 26.5931 24.4228 25.505C24.427 25.4729 24.4491 25.4316 24.4759 25.4146C25.012 25.0721 25.5502 24.7329 26.0884 24.3937C26.0961 24.3887 26.1071 24.3883 26.1348 24.3804C25.9724 25.5964 25.8112 26.8018 25.6489 28.0072C25.6553 28.0114 25.6616 28.016 25.668 28.0201C26.5124 27.1049 27.3567 26.1854 28.2174 25.2573C28.2421 25.3981 28.2638 25.5187 28.2851 25.6392C28.3455 25.9838 28.4038 26.3304 28.4681 26.675C28.4813 26.7445 28.4621 26.787 28.4149 26.8361C27.8691 27.395 27.3255 27.9561 26.7807 28.5215C26.7569 28.5461 26.7343 28.5715 26.7071 28.6007C26.7245 28.6277 26.7394 28.6541 26.7569 28.6782C27.6949 29.9689 28.6308 31.2596 29.5677 32.5503C29.5847 32.5737 29.6093 32.5921 29.6302 32.6129V32.6332" fill="#3C3A3E"/>
<path fill-rule="evenodd" clip-rule="evenodd" d="M11.2218 29.212C11.1979 29.0936 11.1809 28.9187 11.1269 28.7555C10.8654 27.9672 10.0407 27.5394 9.18764 27.7304C8.2496 27.9437 7.57521 28.6659 7.48806 29.6078C7.41615 30.3012 7.79747 30.9732 8.50563 31.2185C9.07651 31.4201 9.62779 31.3359 10.1398 31.0361C10.8164 30.6393 11.1825 30.0494 11.2293 29.212H11.2218ZM7.10358 32.1455C7.0576 32.4847 7.01337 32.8037 6.97066 33.1237C6.91368 33.5482 6.85627 33.9739 6.8018 34.4038C6.79548 34.4534 6.78012 34.4754 6.72564 34.475C6.29748 34.4734 5.86931 34.4738 5.44006 34.473C5.43025 34.473 5.42045 34.468 5.39746 34.4614C5.42339 34.2608 5.44856 34.0592 5.47536 33.8587C5.56982 33.1546 5.66384 32.4506 5.75971 31.7466C5.86975 30.9401 5.95582 30.1358 6.09636 29.3358C6.34476 27.9171 7.57805 26.701 9.01616 26.3916C9.85178 26.2146 10.6504 26.2966 11.3803 26.7575C12.1081 27.2162 12.5243 27.8883 12.6223 28.7203C12.7574 29.9043 12.3118 30.8857 11.4566 31.7071C10.8922 32.2415 10.2146 32.5807 9.44105 32.6959C8.63811 32.8143 7.8831 32.6835 7.20763 32.2202C7.18289 32.2031 7.15609 32.1882 7.1136 32.1619" fill="#3C3A3E"/>
<path fill-rule="evenodd" clip-rule="evenodd" d="M6.38434 25.4249C5.90497 25.7748 5.44194 26.1119 4.97892 26.4501C4.90407 26.3349 4.83729 26.2197 4.75884 26.1119C4.55729 25.8356 4.30671 25.6298 3.94283 25.6052C3.63995 25.5843 3.38066 25.6818 3.17474 25.9007C2.99062 26.0959 2.96665 26.3743 3.13857 26.5951C3.32814 26.8383 3.53514 27.0688 3.74759 27.2938C4.09949 27.6672 4.46665 28.0256 4.81528 28.4032C5.13232 28.7446 5.38616 29.1265 5.46461 29.5979C5.55787 30.1526 5.44467 30.6753 5.17698 31.166C4.68127 32.0674 3.9023 32.5954 2.86729 32.7554C2.41189 32.8274 1.95867 32.8133 1.51634 32.6853C0.926937 32.5157 0.516204 32.137 0.252551 31.608C0.159401 31.4191 0.0880401 31.2197 0.00415039 31.017C0.519473 30.7471 1.02172 30.4836 1.52942 30.218C1.54685 30.2593 1.5596 30.2939 1.57583 30.3268C1.66266 30.4964 1.7338 30.6767 1.84057 30.8335C2.15979 31.2975 2.67402 31.4383 3.19152 31.209C3.32553 31.1498 3.45518 31.0671 3.56521 30.9711C3.90077 30.6788 3.96396 30.2714 3.71556 29.9044C3.57284 29.6932 3.39416 29.5033 3.21985 29.3145C2.80367 28.8622 2.37006 28.4238 1.96695 27.9598C1.68696 27.6419 1.4963 27.2728 1.43529 26.8504C1.36937 26.3853 1.46427 25.948 1.71092 25.5597C2.3243 24.5879 3.2144 24.0876 4.39104 24.1196C5.06324 24.1434 5.60035 24.4514 6.01436 24.9634C6.13747 25.1149 6.25295 25.2717 6.37824 25.4359" fill="#3C3A3E"/>
<path fill-rule="evenodd" clip-rule="evenodd" d="M17.7585 30.5983C17.6801 31.184 17.6059 31.7397 17.5297 32.2944C17.5254 32.3228 17.5029 32.3611 17.4786 32.372C16.3128 32.8989 14.7876 32.8253 13.8397 31.765C13.3277 31.1954 13.113 30.5169 13.1446 29.7702C13.219 28.0315 14.6917 26.5061 16.4566 26.2927C17.4862 26.169 18.385 26.441 19.0823 27.2251C19.5573 27.7584 19.7774 28.3984 19.7447 29.1025C19.7234 29.5676 19.6489 30.0295 19.59 30.4892C19.5061 31.1442 19.4146 31.8013 19.3263 32.452C19.3229 32.4748 19.3183 32.4982 19.3127 32.5278H17.9291C17.9474 32.3774 17.9644 32.2302 17.984 32.083C18.0844 31.3267 18.1953 30.5683 18.2836 29.8109C18.3385 29.3394 18.304 28.8711 18.0831 28.4348C17.8489 27.9708 17.4567 27.7244 16.9392 27.6711C15.8693 27.5601 14.8474 28.2876 14.6295 29.3138C14.4791 29.9944 14.7163 30.6472 15.2701 31.0099C15.8094 31.3608 16.3814 31.3619 16.9697 31.1347C17.2682 31.0195 17.5209 30.836 17.7628 30.5896" fill="#3C3A3E"/>
<path fill-rule="evenodd" clip-rule="evenodd" d="M23.6417 26.4705C23.5783 26.942 23.5153 27.406 23.4522 27.8786C23.158 27.8786 22.8704 27.877 22.5828 27.879C22.3496 27.8807 22.1372 28.0284 22.0663 28.2417C22.0391 28.325 22.029 28.4145 22.017 28.502C21.871 29.59 21.7261 30.6674 21.5812 31.7448C21.5446 32.0179 21.5093 32.291 21.4727 32.5683H20.0237C20.0505 32.3603 20.076 32.1587 20.1028 31.9571C20.1968 31.2552 20.2913 30.549 20.386 29.8556C20.4682 29.2487 20.5418 28.6396 20.6388 28.0316C20.7684 27.2209 21.5921 26.4955 22.4255 26.4635C22.8243 26.4464 23.2241 26.4606 23.6349 26.4606" fill="#3C3A3E"/>
<path d="M31.3771 32.6254V32.0281H31.3737L31.134 32.6254H31.0579L30.8182 32.0281H30.8144V32.6254H30.6945V31.9097H30.8808L31.0987 32.4537L31.3133 31.9097H31.4985V32.6254H31.3771ZM30.3159 32.0057V32.6254H30.1961V32.0057H29.9673V31.9098H30.5458V32.0057H30.317" fill="#3C3A3E"/>
<path d="M8.31291 24.4224H8.67135L8.58659 23.8911L8.31291 24.4224ZM8.72801 24.7658H8.13206L7.94249 25.1296H7.51978L8.45128 23.4229H8.85874L9.17578 25.1296H8.78466L8.72844 24.7658" fill="#3C3A3E"/>
<path d="M10.8622 23.7715H10.6498L10.5783 24.1651H10.7907C10.9193 24.1651 11.0206 24.0826 11.0206 23.9272C11.0206 23.8243 10.9568 23.7715 10.8616 23.7715H10.8622ZM10.348 23.428H10.9058C11.1978 23.428 11.4015 23.5987 11.4015 23.891C11.4015 24.26 11.1357 24.5075 10.7565 24.5075H10.5158L10.4025 25.1316H10.0386L10.3458 23.4248" fill="#3C3A3E"/>
<path d="M12.638 24.4224H12.9964L12.9118 23.8911L12.638 24.4224ZM13.052 24.7658H12.456L12.2665 25.1296H11.8438L12.7753 23.4229H13.1827L13.4998 25.1296H13.1086L13.0524 24.7658" fill="#3C3A3E"/>
<path d="M15.3617 25.073C15.2386 25.128 15.1035 25.1609 14.9673 25.1609C14.5065 25.1609 14.2178 24.8227 14.2178 24.3992C14.2178 23.8573 14.683 23.4019 15.2364 23.4019C15.3748 23.4019 15.5001 23.4344 15.6025 23.4893L15.5514 23.8979C15.4748 23.815 15.3509 23.7571 15.1984 23.7571C14.8814 23.7571 14.5992 24.0376 14.5992 24.363C14.5992 24.6104 14.7583 24.8046 15.0088 24.8046C15.1625 24.8046 15.3106 24.7467 15.4109 24.667L15.3624 25.0723" fill="#3C3A3E"/>
<path d="M17.6496 24.4437H16.8924L16.7693 25.1296H16.4065L16.7137 23.4229H17.0776L16.9556 24.097H17.7128L17.8359 23.4229H18.1998L17.8925 25.1296H17.5287L17.6507 24.4437" fill="#3C3A3E"/>
<path d="M18.957 25.1262L19.2643 23.4194H20.2295L20.1682 23.7629H19.5668L19.5055 24.0936H20.0578L19.9965 24.4371H19.4441L19.3828 24.7806H19.9842L19.9229 25.124H18.9576" fill="#3C3A3E"/>
</g>
<path d="M38.3735 30.2685C38.3735 30.9604 38.1221 31.5056 37.6193 31.904C37.12 32.3024 36.4239 32.5016 35.5308 32.5016C34.7081 32.5016 33.9803 32.3478 33.3474 32.0403V30.5306C33.8678 30.7612 34.3073 30.9237 34.6659 31.0181C35.028 31.1125 35.3585 31.1596 35.6574 31.1596C36.016 31.1596 36.2903 31.0915 36.4801 30.9552C36.6735 30.8189 36.7702 30.6162 36.7702 30.3471C36.7702 30.1968 36.728 30.064 36.6436 29.9487C36.5592 29.8299 36.4344 29.7163 36.2692 29.608C36.1074 29.4996 35.7752 29.3267 35.2724 29.089C34.8013 28.8689 34.4479 28.6574 34.2123 28.4547C33.9768 28.252 33.7887 28.0161 33.648 27.7471C33.5074 27.478 33.4371 27.1634 33.4371 26.8035C33.4371 26.1255 33.6674 25.5926 34.128 25.2047C34.5921 24.8167 35.232 24.6228 36.0477 24.6228C36.4485 24.6228 36.83 24.67 37.1921 24.7643C37.5578 24.8587 37.9393 24.9915 38.3366 25.1627L37.8092 26.4261C37.3978 26.2583 37.0568 26.1412 36.786 26.0748C36.5188 26.0084 36.2551 25.9752 35.9949 25.9752C35.6855 25.9752 35.4482 26.0469 35.283 26.1902C35.1177 26.3334 35.0351 26.5204 35.0351 26.7511C35.0351 26.8943 35.0685 27.0202 35.1353 27.1285C35.2021 27.2333 35.3076 27.3364 35.4517 27.4378C35.5994 27.5356 35.9457 27.7139 36.4907 27.9725C37.2115 28.3149 37.7055 28.6592 37.9727 29.0051C38.2399 29.3476 38.3735 29.7687 38.3735 30.2685Z" fill="black"/>
<path d="M46.2044 28.5543C46.2044 29.456 46.0427 30.2126 45.7192 30.8241C45.3992 31.4322 44.9281 31.8778 44.3058 32.1609L46.1622 34.221H44.0685L42.655 32.5016H42.5337C41.3524 32.5016 40.4452 32.1609 39.8124 31.4794C39.1795 30.7979 38.8631 29.8194 38.8631 28.5438C38.8631 27.2683 39.1795 26.295 39.8124 25.624C40.4488 24.9495 41.3594 24.6123 42.5443 24.6123C43.7292 24.6123 44.6345 24.9513 45.2604 25.6293C45.8897 26.3072 46.2044 27.2823 46.2044 28.5543ZM40.5771 28.5543C40.5771 29.4105 40.7406 30.0553 41.0676 30.4886C41.3946 30.922 41.8833 31.1387 42.5337 31.1387C43.8382 31.1387 44.4904 30.2772 44.4904 28.5543C44.4904 26.8279 43.8417 25.9648 42.5443 25.9648C41.8938 25.9648 41.4033 26.1832 41.0728 26.62C40.7423 27.0534 40.5771 27.6981 40.5771 28.5543Z" fill="black"/>
<path d="M47.2372 32.3968V24.7329H48.8721V31.0548H51.9996V32.3968H47.2372Z" fill="black"/>
<defs>
<clipPath id="clip0_3526_17630">
<rect width="33.913" height="17.2439" fill="white" transform="translate(0 17.2646)"/>
</clipPath>
</defs>
</svg>
