<svg width="52" height="52" viewBox="0 0 52 52" fill="none" xmlns="http://www.w3.org/2000/svg">
<g clip-path="url(#clip0_3526_17649)">
<rect width="52" height="52" fill="white"/>
<g clip-path="url(#clip1_3526_17649)">
<path fill-rule="evenodd" clip-rule="evenodd" d="M43.3194 39.9948C43.2831 39.9173 43.2667 39.8783 43.2472 39.8411C42.7223 38.8428 42.1988 37.8445 41.6685 36.8462C41.6154 36.7461 41.6221 36.687 41.6948 36.6007C42.53 35.6253 43.3544 34.6446 44.191 33.6733C44.2205 33.639 44.2469 33.6027 44.2579 33.5416C44.0151 33.6049 43.7722 33.6675 43.528 33.7318C42.5201 33.9989 41.5041 34.2647 40.5056 34.5358C40.4118 34.5611 40.3693 34.5337 40.3221 34.4557C39.75 33.4992 39.1739 32.5401 38.595 31.5958C38.5655 31.5462 38.5332 31.4982 38.4701 31.4568C38.4237 31.7118 38.3767 31.9654 38.3311 32.2204C38.1705 33.1202 38.01 34.0146 37.8508 34.9184C37.8333 35.0154 37.8096 35.1127 37.8012 35.2098C37.7933 35.3026 37.7454 35.3369 37.6609 35.3636C36.4722 35.7373 35.2862 36.1137 34.0988 36.4901C34.0467 36.5064 33.9956 36.528 33.9396 36.5785C34.9111 36.9644 35.8826 37.3502 36.8675 37.7428C36.8316 37.7712 36.8079 37.7934 36.7816 37.8102C36.1744 38.2028 35.5659 38.5954 34.9601 38.9893C34.8873 39.0368 34.8299 39.0435 34.7482 39.0067C34.0223 38.6802 33.291 38.3591 32.5624 38.0354C32.2359 37.8897 31.9431 37.6968 31.7151 37.4162C31.1983 36.7848 31.3008 36.0671 31.989 35.6219C32.2143 35.4776 32.4707 35.371 32.7257 35.2874C33.8901 34.9083 35.0599 34.5427 36.2203 34.1758C36.3182 34.1446 36.3633 34.1009 36.3822 33.995C36.5387 33.0939 36.6993 32.1873 36.8625 31.2969C36.9494 30.8153 36.9953 30.3229 37.2295 29.8805C37.3193 29.7105 37.4265 29.5445 37.5561 29.4029C38.0202 28.8876 38.6665 28.8687 39.1617 29.3587C39.3277 29.5246 39.4693 29.7188 39.5921 29.9199C40.1318 30.8008 40.6635 31.6871 41.1978 32.5774C41.2605 32.6823 41.3169 32.7033 41.4325 32.6728C42.7346 32.3234 44.0366 31.9794 45.3454 31.6354C45.6153 31.5643 45.8865 31.5386 46.1631 31.5902C46.7635 31.7025 47.0266 32.1595 46.8229 32.741C46.7307 33.0054 46.5706 33.228 46.3911 33.4398C45.4817 34.5095 44.5696 35.5847 43.6656 36.6505C43.5912 36.7379 43.5898 36.8002 43.6413 36.8987C44.1864 37.9253 44.7261 38.9492 45.2739 39.988C45.4036 40.2335 45.5033 40.4898 45.506 40.7717C45.5123 41.4139 45.0419 41.94 44.4036 42.0344C44.0461 42.0867 43.7142 42.0103 43.3782 41.907C42.5619 41.6547 41.7456 41.4065 40.9225 41.1596C40.8465 41.1369 40.8175 41.1068 40.8039 41.0252C40.71 40.4492 40.6069 39.8745 40.5071 39.2985C40.5045 39.2827 40.5092 39.2658 40.5119 39.2305C41.4443 39.4881 42.3739 39.7418 43.3319 40.0075" fill="#E25A1C"/>
<path fill-rule="evenodd" clip-rule="evenodd" d="M41.7003 48.4264C40.9636 48.4253 40.2295 48.4217 39.4874 48.4249C39.3899 48.4249 39.335 48.397 39.281 48.3141C38.4094 46.9867 37.5269 45.6565 36.6634 44.3345C36.6355 44.2924 36.6059 44.2518 36.5564 44.1807C36.3689 45.6107 36.184 47.0137 35.9992 48.4167H34.0697C34.0924 48.2292 34.1125 48.047 34.1362 47.8663C34.3238 46.4228 34.514 44.9928 34.7029 43.5494C34.8837 42.1733 35.0632 40.7973 35.2467 39.4213C35.2519 39.3807 35.2793 39.3285 35.3125 39.3069C35.9764 38.8739 36.6429 38.4449 37.3094 38.0159C37.319 38.0095 37.3327 38.009 37.3669 37.999C37.1659 39.5369 36.9662 41.0613 36.7651 42.5857C36.7731 42.591 36.7809 42.5968 36.7889 42.6021C37.8346 41.4446 38.8803 40.2817 39.9462 39.1081C39.9768 39.2861 40.0037 39.4386 40.03 39.591C40.1049 40.0268 40.1771 40.4652 40.2567 40.9009C40.273 40.9889 40.2492 41.0426 40.1908 41.1046C39.5148 41.8115 38.8415 42.5211 38.1669 43.2361C38.1374 43.2673 38.1094 43.2994 38.0757 43.3363C38.0973 43.3705 38.1158 43.4038 38.1374 43.4343C39.2991 45.0666 40.4581 46.6989 41.6185 48.3313C41.6395 48.3608 41.67 48.384 41.6959 48.4103V48.4361" fill="#3C3A3E"/>
<path fill-rule="evenodd" clip-rule="evenodd" d="M18.8976 44.1093C18.868 43.9596 18.847 43.7383 18.78 43.5319C18.4562 42.535 17.4348 41.994 16.3783 42.2355C15.2166 42.5053 14.3814 43.4186 14.2735 44.6098C14.1844 45.4867 14.6566 46.3366 15.5337 46.6468C16.2407 46.9018 16.9234 46.7952 17.5576 46.4162C18.3955 45.9143 18.8488 45.1683 18.9069 44.1093H18.8976ZM13.7973 47.8192C13.7404 48.2481 13.6856 48.6515 13.6327 49.0562C13.5621 49.5931 13.491 50.1314 13.4235 50.6751C13.4157 50.7378 13.3967 50.7657 13.3292 50.7652C12.799 50.7631 12.2687 50.7637 11.7371 50.7626C11.7249 50.7626 11.7128 50.7563 11.6843 50.7479C11.7164 50.4943 11.7476 50.2393 11.7808 49.9857C11.8978 49.0953 12.0142 48.205 12.133 47.3146C12.2692 46.2947 12.3758 45.2776 12.5499 44.2658C12.8575 42.4716 14.3849 40.9337 16.1659 40.5425C17.2008 40.3185 18.1899 40.4223 19.0939 41.0052C19.9952 41.5853 20.5106 42.4352 20.632 43.4874C20.7994 44.9848 20.2475 46.2259 19.1883 47.2647C18.4894 47.9406 17.6501 48.3696 16.6922 48.5153C15.6977 48.665 14.7627 48.4995 13.9261 47.9136C13.8955 47.892 13.8623 47.8731 13.8097 47.8399" fill="#3C3A3E"/>
<path fill-rule="evenodd" clip-rule="evenodd" d="M12.9065 39.3201C12.3128 39.7626 11.7394 40.1889 11.1659 40.6165C11.0732 40.4708 10.9905 40.3252 10.8934 40.1889C10.6438 39.8395 10.3334 39.5791 9.88278 39.5481C9.50768 39.5217 9.18656 39.645 8.93154 39.9218C8.70352 40.1687 8.67383 40.5208 8.88675 40.8C9.12152 41.1076 9.37788 41.399 9.64099 41.6836C10.0768 42.1558 10.5315 42.6091 10.9633 43.0866C11.3559 43.5183 11.6703 44.0013 11.7675 44.5975C11.8829 45.299 11.7428 45.9601 11.4112 46.5806C10.7973 47.7206 9.83259 48.3883 8.55078 48.5907C7.98678 48.6817 7.42548 48.6639 6.87768 48.502C6.14772 48.2876 5.63904 47.8086 5.31252 47.1395C5.19715 46.9007 5.10878 46.6485 5.00488 46.3922C5.64309 46.0509 6.26511 45.7176 6.89387 45.3817C6.91546 45.4339 6.93124 45.4777 6.95135 45.5193C7.05888 45.7338 7.14699 45.9618 7.27922 46.1601C7.67456 46.747 8.31142 46.925 8.95232 46.635C9.11828 46.5601 9.27885 46.4556 9.41512 46.3342C9.8307 45.9645 9.90896 45.4492 9.60132 44.9851C9.42457 44.718 9.20329 44.4779 8.9874 44.2391C8.47198 43.6671 7.93497 43.1127 7.43574 42.5258C7.08897 42.1238 6.85285 41.6571 6.77729 41.1228C6.69566 40.5347 6.81318 39.9816 7.11866 39.4905C7.8783 38.2615 8.98066 37.6288 10.4379 37.6693C11.2704 37.6994 11.9356 38.0889 12.4483 38.7364C12.6008 38.928 12.7438 39.1263 12.899 39.334" fill="#3C3A3E"/>
<path fill-rule="evenodd" clip-rule="evenodd" d="M26.9932 45.8631C26.8962 46.6037 26.8043 47.3066 26.7098 48.0081C26.7046 48.0439 26.6766 48.0924 26.6466 48.1061C25.2028 48.7726 23.3138 48.6795 22.14 47.3385C21.5058 46.6181 21.24 45.7602 21.2791 44.8158C21.3713 42.6169 23.1951 40.6878 25.3809 40.418C26.656 40.2615 27.7692 40.6055 28.6327 41.597C29.221 42.2716 29.4935 43.081 29.4531 43.9713C29.4267 44.5595 29.3344 45.1437 29.2615 45.7251C29.1576 46.5534 29.0442 47.3844 28.9349 48.2073C28.9307 48.2362 28.9249 48.2657 28.9181 48.3032H27.2045C27.2271 48.113 27.2482 47.9268 27.2725 47.7407C27.3969 46.7842 27.5342 45.8251 27.6435 44.8672C27.7115 44.271 27.6688 43.6787 27.3953 43.127C27.1052 42.5402 26.6194 42.2285 25.9785 42.1611C24.6535 42.0208 23.3879 42.9408 23.1181 44.2386C22.9319 45.0993 23.2256 45.9249 23.9114 46.3836C24.5793 46.8274 25.2877 46.8287 26.0163 46.5414C26.386 46.3957 26.699 46.1637 26.9986 45.852" fill="#3C3A3E"/>
<path fill-rule="evenodd" clip-rule="evenodd" d="M34.2793 40.6421C34.2007 41.2384 34.1228 41.8252 34.0445 42.4228C33.6802 42.4228 33.324 42.4208 32.9678 42.4234C32.679 42.4255 32.4159 42.6122 32.3282 42.882C32.2945 42.9874 32.2819 43.1006 32.2671 43.2112C32.0863 44.5872 31.9068 45.9497 31.7274 47.3123C31.6821 47.6576 31.6383 48.003 31.593 48.3537H29.7985C29.8317 48.0907 29.8632 47.8357 29.8964 47.5807C30.0129 46.6931 30.1298 45.8 30.2472 44.9231C30.349 44.1555 30.4402 43.3852 30.5603 42.6163C30.7208 41.591 31.7409 40.6737 32.7731 40.6332C33.2669 40.6116 33.7621 40.6296 34.2708 40.6296" fill="#3C3A3E"/>
<path d="M43.8591 48.4262V47.6707H43.8549L43.5581 48.4262H43.4638L43.1669 47.6707H43.1622V48.4262H43.0138V47.521H43.2445L43.5144 48.209L43.7802 47.521H44.0096V48.4262H43.8591ZM42.5449 47.6424V48.4262H42.3965V47.6424H42.1132V47.5211H42.8296V47.6424H42.5463" fill="#3C3A3E"/>
<path d="M15.295 38.0521H15.7389L15.634 37.3803L15.295 38.0521ZM15.8091 38.4865H15.071L14.8363 38.9465H14.3127L15.4664 36.7881H15.971L16.3636 38.9465H15.8793L15.8096 38.4865" fill="#3C3A3E"/>
<path d="M18.4523 37.2295H18.1892L18.1007 37.7272H18.3638C18.523 37.7272 18.6485 37.623 18.6485 37.4264C18.6485 37.2962 18.5694 37.2295 18.4515 37.2295H18.4523ZM17.8154 36.7951H18.5063C18.8679 36.7951 19.1202 37.0109 19.1202 37.3805C19.1202 37.8473 18.791 38.1603 18.3214 38.1603H18.0232L17.8829 38.9495H17.4323L17.8127 36.791" fill="#3C3A3E"/>
<path d="M20.6516 38.0521H21.0955L20.9907 37.3803L20.6516 38.0521ZM21.1643 38.4865H20.4263L20.1915 38.9465H19.668L20.8216 36.7881H21.3262L21.7189 38.9465H21.2345L21.1649 38.4865" fill="#3C3A3E"/>
<path d="M24.0248 38.8751C23.8723 38.9447 23.705 38.9863 23.5363 38.9863C22.9656 38.9863 22.608 38.5586 22.608 38.0231C22.608 37.3378 23.1842 36.7617 23.8696 36.7617C24.041 36.7617 24.1961 36.8029 24.323 36.8723L24.2597 37.389C24.1648 37.2842 24.0114 37.2109 23.8225 37.2109C23.4299 37.2109 23.0804 37.5657 23.0804 37.9772C23.0804 38.2902 23.2774 38.5357 23.5877 38.5357C23.778 38.5357 23.9615 38.4624 24.0856 38.3617L24.0256 38.8743" fill="#3C3A3E"/>
<path d="M26.8582 38.0791H25.9205L25.768 38.9465H25.3187L25.6992 36.7881H26.1499L25.9988 37.6407H26.9365L27.089 36.7881H27.5396L27.1591 38.9465H26.7085L26.8596 38.0791" fill="#3C3A3E"/>
<path d="M28.4774 38.9426L28.8579 36.7842H30.0534L29.9774 37.2186H29.2326L29.1566 37.6368H29.8407L29.7648 38.0712H29.0807L29.0047 38.5055H29.7495L29.6736 38.9399H28.4781" fill="#3C3A3E"/>
</g>
<rect x="-28" y="-3" width="107" height="21" fill="#F4F6FB"/>
<path d="M24.9558 8.33582H25.5295C26.0918 8.33582 26.5068 8.24211 26.7745 8.05469C27.0423 7.86727 27.1761 7.57275 27.1761 7.17114C27.1761 6.77336 27.0385 6.49032 26.7631 6.32202C26.4915 6.15373 26.0688 6.06958 25.4951 6.06958H24.9558V8.33582ZM24.9558 9.78162V13.0002H23.1772V4.6123H25.6213C26.7611 4.6123 27.6045 4.82076 28.1515 5.23767C28.6984 5.65076 28.9719 6.27995 28.9719 7.12524C28.9719 7.61865 28.8361 8.05851 28.5646 8.44482C28.293 8.82731 27.9086 9.12756 27.4114 9.34558C28.6736 11.2312 29.4959 12.4495 29.8784 13.0002H27.9048L25.9025 9.78162H24.9558Z" fill="black"/>
<path d="M25.065 25.4977C25.065 26.0682 25.0104 26.5721 24.901 27.0093C24.7948 27.4434 24.6338 27.8093 24.4182 28.107C24.2057 28.4016 23.9415 28.6248 23.6257 28.7767C23.3129 28.9256 22.95 29 22.5371 29C22.1271 29 21.7643 28.924 21.4484 28.7721C21.1326 28.6202 20.8669 28.3969 20.6513 28.1023C20.4357 27.8047 20.2733 27.4372 20.164 27C20.0547 26.5628 20 26.0589 20 25.4884C20 24.7318 20.0957 24.0946 20.287 23.5767C20.4813 23.0589 20.7667 22.6667 21.1433 22.4C21.5228 22.1333 21.9874 22 22.5371 22C23.0897 22 23.5528 22.1318 23.9263 22.3953C24.3028 22.6589 24.5867 23.0512 24.7781 23.5721C24.9694 24.0899 25.065 24.7318 25.065 25.4977ZM21.6489 25.4977C21.6489 25.9597 21.6823 26.3457 21.7491 26.6558C21.8159 26.9659 21.9146 27.1984 22.0451 27.3535C22.1787 27.5054 22.3427 27.5814 22.5371 27.5814C22.7375 27.5814 22.9014 27.507 23.029 27.3581C23.1596 27.2093 23.2552 26.9814 23.3159 26.6744C23.3797 26.3643 23.4116 25.9721 23.4116 25.4977C23.4116 24.7783 23.3387 24.2481 23.193 23.907C23.0502 23.5628 22.8316 23.3907 22.5371 23.3907C22.3427 23.3907 22.1787 23.4698 22.0451 23.6279C21.9146 23.7829 21.8159 24.0171 21.7491 24.3302C21.6823 24.6403 21.6489 25.0295 21.6489 25.4977Z" fill="#3C3A3E"/>
<path d="M31 28.907H29.1507L27.4153 24.6791H27.3789C27.3971 24.9271 27.4108 25.1581 27.4199 25.3721C27.432 25.5829 27.4396 25.7752 27.4427 25.9488C27.4487 26.1194 27.4518 26.2698 27.4518 26.4V28.907H25.9805V22.107H27.8161L29.5424 26.2186H29.5789C29.5667 25.9891 29.5561 25.7752 29.547 25.5767C29.5379 25.3783 29.5303 25.1953 29.5242 25.0279C29.5182 24.8605 29.5151 24.7085 29.5151 24.5721V22.107H31V28.907Z" fill="#3C3A3E"/>
</g>
<defs>
<clipPath id="clip0_3526_17649">
<rect width="52" height="52" fill="white"/>
</clipPath>
<clipPath id="clip1_3526_17649">
<rect width="42" height="21.8077" fill="white" transform="translate(5 29)"/>
</clipPath>
</defs>
</svg>
