<svg width="18" height="18" viewBox="0 0 18 18" fill="none" xmlns="http://www.w3.org/2000/svg">
<g clip-path="url(#clip0_1227_2376)">
<path d="M6 12H12V6H6V12ZM9 17C7.90278 17 6.86806 16.7917 5.89583 16.375C4.92361 15.9583 4.06944 15.3889 3.33333 14.6667C2.61111 13.9306 2.04167 13.0764 1.625 12.1042C1.20833 11.1319 1 10.0972 1 9C1 7.88889 1.20833 6.85417 1.625 5.89583C2.04167 4.92361 2.61111 4.07639 3.33333 3.35417C4.06944 2.61805 4.92361 2.04167 5.89583 1.625C6.86806 1.20833 7.90278 0.999999 9 0.999999C10.1111 0.999999 11.1458 1.20833 12.1042 1.625C13.0764 2.04167 13.9236 2.61805 14.6458 3.35417C15.3819 4.07639 15.9583 4.92361 16.375 5.89583C16.7917 6.85417 17 7.88889 17 9C17 10.0972 16.7917 11.1319 16.375 12.1042C15.9583 13.0764 15.3819 13.9306 14.6458 14.6667C13.9236 15.3889 13.0764 15.9583 12.1042 16.375C11.1458 16.7917 10.1111 17 9 17ZM9 15.5C10.8056 15.5 12.3403 14.8681 13.6042 13.6042C14.8681 12.3403 15.5 10.8056 15.5 9C15.5 7.19444 14.8681 5.65972 13.6042 4.39583C12.3403 3.13194 10.8056 2.5 9 2.5C7.19444 2.5 5.65972 3.13194 4.39583 4.39583C3.13194 5.65972 2.5 7.19444 2.5 9C2.5 10.8056 3.13194 12.3403 4.39583 13.6042C5.65972 14.8681 7.19444 15.5 9 15.5Z" fill="#444746"/>
</g>
<defs>
<clipPath id="clip0_1227_2376">
<rect width="18" height="18" fill="white"/>
</clipPath>
</defs>
</svg>
